<svg xmlns="http://www.w3.org/2000/svg" width="231.216" height="138.378" viewBox="0 0 231.216 138.378">
  <g id="Calque_1" data-name="Calque 1" transform="translate(-76.957 -79.225)">
    <g id="Groupe_12" data-name="Groupe 12" transform="translate(165.358 95.437)">
      <g id="Groupe_11" data-name="Groupe 11" transform="translate(0 0)">
        <g id="Groupe_1" data-name="Groupe 1" transform="translate(37.339 49.136)">
          <rect id="Rectangle_2" data-name="Rectangle 2" width="0.002" height="0.002" fill="#bca449"/>
        </g>
        <g id="Groupe_3" data-name="Groupe 3" transform="translate(11.189 19.581)">
          <g id="Groupe_2" data-name="Groupe 2">
            <path id="Tracé_2" data-name="Tracé 2" d="M377.409,181.522h-.01l0,0Z" transform="translate(-377.395 -181.52)" fill="#bca449"/>
          </g>
        </g>
        <path id="Tracé_3" data-name="Tracé 3" d="M377.409,181.522h-.01l0,0Z" transform="translate(-366.206 -161.939)" fill="#bca449"/>
        <path id="Tracé_4" data-name="Tracé 4" d="M415.331,134.655l0,0-.007,0a.719.719,0,0,0-.311.471,2.692,2.692,0,0,0-.018.311l-.01.321-.04,1.28-.04-1.28-.01-.321a2.865,2.865,0,0,1,0-.329.86.86,0,0,1,.343-.59.081.081,0,0,1,.113.016A.08.08,0,0,1,415.331,134.655Z" transform="translate(-391.269 -130.513)" fill="#bca449"/>
        <path id="Tracé_5" data-name="Tracé 5" d="M419.061,127.274c.071.048.145.092.219.139-.078-.04-.155-.079-.231-.123l-.106-.078-.053-.04-.045-.048a.644.644,0,0,1-.2-.487,1.037,1.037,0,0,1,.168-.514,1.975,1.975,0,0,1,.343-.418.081.081,0,1,1,.11.119s0,0,0,0l0,0a1.866,1.866,0,0,0-.343.358.937.937,0,0,0-.189.452.586.586,0,0,0,.155.458l.038.05.048.042Z" transform="translate(-393.779 -124.612)" fill="#bca449"/>
        <path id="Tracé_6" data-name="Tracé 6" d="M418.652,145.124l-.006.006-1.04.918.927-1.032a.081.081,0,1,1,.119.108Z" transform="translate(-393.087 -137.518)" fill="#bca449"/>
        <g id="Groupe_9" data-name="Groupe 9" transform="translate(37.339 49.136)">
          <g id="Groupe_4" data-name="Groupe 4">
            <rect id="Rectangle_3" data-name="Rectangle 3" width="0.002" height="0.002" transform="translate(0 0)" fill="#bca449"/>
            <path id="Tracé_7" data-name="Tracé 7" d="M456.283,270.682v0h0v0Z" transform="translate(-456.283 -270.682)" fill="#bca449"/>
            <path id="Tracé_8" data-name="Tracé 8" d="M463.181,280.489l-.01.026-.063-.1Z" transform="translate(-460.846 -277.186)" fill="#bca449"/>
          </g>
          <g id="Groupe_5" data-name="Groupe 5" transform="translate(0 0)">
            <rect id="Rectangle_4" data-name="Rectangle 4" width="0.002" height="0.002" fill="#bca449"/>
            <rect id="Rectangle_5" data-name="Rectangle 5" width="0.002" height="0.002" fill="#bca449"/>
          </g>
          <g id="Groupe_6" data-name="Groupe 6" transform="translate(2.262 3.225)">
            <path id="Tracé_9" data-name="Tracé 9" d="M463.181,280.489l-.01.026-.063-.1Z" transform="translate(-463.108 -280.411)" fill="#bca449"/>
          </g>
          <g id="Groupe_7" data-name="Groupe 7" transform="translate(0 0)">
            <rect id="Rectangle_6" data-name="Rectangle 6" width="0.002" height="0.002" fill="#bca449"/>
          </g>
          <g id="Groupe_8" data-name="Groupe 8" transform="translate(0 0)">
            <rect id="Rectangle_7" data-name="Rectangle 7" width="0.002" height="0.002" fill="#bca449"/>
            <rect id="Rectangle_8" data-name="Rectangle 8" width="0.002" height="0.002" fill="#bca449"/>
          </g>
        </g>
        <g id="Groupe_10" data-name="Groupe 10">
          <path id="Tracé_10" data-name="Tracé 10" d="M394.389,175.806c-.134-.113-.261-.219-.3-.258a.9.9,0,0,1,.081-.169l.147-.242-.263-.108a2.9,2.9,0,0,1-.324-.156,2.1,2.1,0,0,1,.137-.2l.163-.21-.224-.142a2.138,2.138,0,0,1-.426-.342.318.318,0,0,1-.045-.137l.019-.021a1.5,1.5,0,0,0,.227-.334l.093-.192-.825-.539-.315-.479a1.833,1.833,0,0,1,.3-.5l.264-.176-.24-.208c-.147-.129-.282-.234-.4-.327-.242-.187-.387-.306-.361-.365l.1-.227-.229-.094c-.219-.09-.444-.189-.613-.266a1.556,1.556,0,0,0,.368-.893v-.145l-.129-.069c-.335-.176-.613-.34-.758-.427l-.021-.572-.232,0a6.164,6.164,0,0,1-.774-.048,1.619,1.619,0,0,1,.1-.252l.182-.371-.413.023a4.533,4.533,0,0,1-1.314-.106c.31-.674.54-1.18.54-1.18l.106-.237-.243-.09s-.424-.156-.877-.31a.6.6,0,0,0-.045-.45.282.282,0,0,0-.192-.124l-.038,0-.753.147a.57.57,0,0,1-.029-.156.248.248,0,0,0-.035-.31c-.15-.146-.314-.027-.4.036a2.391,2.391,0,0,1-.993.469.353.353,0,0,1-.124-.3l.142-.6-1.129.771.1-.613-.585.777a2.67,2.67,0,0,1-.531.55.265.265,0,0,1,0-.053l.142-.895-.569.706a3.218,3.218,0,0,0-.634.988,1.134,1.134,0,0,0-.356.622c-.023.132-.043.35-.064.58a6.584,6.584,0,0,1-.1.814,1.505,1.505,0,0,0-.121.553c-.032.239-.082.6-.159.972a21.683,21.683,0,0,0-4.02-3.636c-.364-.153-.895-.385-1.465-.638a25.065,25.065,0,0,1-.182-3.046q0-1.18.1-2.309c.474-.158.779-.255.79-.26l.114-.037,1.445-2.378h.395a1.878,1.878,0,0,0,0-3.754h-.116a1.264,1.264,0,0,0,.45-.942,1.235,1.235,0,0,0-.392-.882,1.882,1.882,0,0,0-.877-.476,1.284,1.284,0,0,0,.537-1.008,1.207,1.207,0,0,0-.319-.8,1.865,1.865,0,0,0-1-.564l2.435-6.055a.111.111,0,0,0,.026-.06l.672-1.674.32-.687v0a.125.125,0,0,0,.045-.1v0l.824-1.769a.2.2,0,0,0,.023-.053,3.064,3.064,0,0,0,.119-.842,3.772,3.772,0,0,0-3.323-3.5l-3.688-1.266a.529.529,0,0,0,.028-.169v-.3a.543.543,0,0,0-.542-.542h-.558l.606-.585a.538.538,0,0,0,.164-.39.546.546,0,0,0-.166-.39l-.463-.447h.506a.845.845,0,0,0,.843-.843V126.5a.845.845,0,0,0-.843-.843h-.94a1.6,1.6,0,0,0,.569-1.182c0-1.135-1.354-2.025-3.083-2.027s-3.083.892-3.083,2.027a1.6,1.6,0,0,0,.568,1.182H367a.844.844,0,0,0-.843.843v3.008a.844.844,0,0,0,.843.843h.5l-.466.45a.548.548,0,0,0,0,.779l.606.584h-.558a.543.543,0,0,0-.542.542v.3a.529.529,0,0,0,.027.169l-2.654.911c-.021-.087-.034-.14-.037-.151l-.076-.292-.419.214a1.262,1.262,0,0,1-.5-.069,4,4,0,0,0-.5-1.851l-.1-.156-.176.048a4.232,4.232,0,0,1-.427.1,5.747,5.747,0,0,1-.185-.759l-.023-.123-.552-.261-.79-.955-.127.439a3.08,3.08,0,0,1-.437.943c-.3.316-1.737,2.574-1.68,3.522a2.7,2.7,0,0,1-.8,2.03.111.111,0,0,1-.048-.023,1.677,1.677,0,0,1-.31-.935l.221-.99-.016-.058a18.811,18.811,0,0,0-.855-2.554,12.066,12.066,0,0,0-1.622-1.663l-.221-.193-.148.255c-.023.042-.49.853-.863,1.616a2.477,2.477,0,0,0-1.158-1l-.263-.1-.058.273s-.007.032-.018.082a3.807,3.807,0,0,0-.474-.393l-.06-.042-.074,0a5.82,5.82,0,0,0-1.09.127,2.09,2.09,0,0,0-1.163-.489l-.029,0-.029.007c-.124.026-.3.153-.413.6a.282.282,0,0,1-.013.047,2.09,2.09,0,0,0-1.177-.522l-.143-.024-.089.114a3.087,3.087,0,0,0-.355,1.406l-.369.079,0,.2c0,.214.045.729.313.9a.576.576,0,0,1,.124.172l-.9.026.492.41a2.75,2.75,0,0,1,.419,1.095c.008.035.018.069.026.1a2.75,2.75,0,0,0-.468.408l-.126.132.545.93c-.155.234-.252.472-.066.622a2.917,2.917,0,0,1,.3.332,2.339,2.339,0,0,0-.816.814l-.086.144.1.131a2.6,2.6,0,0,0,1.261.756,1.972,1.972,0,0,1,.379.148l-.335.31.273.166a2.922,2.922,0,0,0,1.574.445,1.978,1.978,0,0,1,1.338.353,1.775,1.775,0,0,1-.445.593l-1.155.179-2.438.632-.44.834-.542.184-.037.034a4.011,4.011,0,0,0-.48.548,4.455,4.455,0,0,0-1.268,1.764l-.176.471.479-.156a2.916,2.916,0,0,1,.368-.077l.016,0a1.05,1.05,0,0,1,.819.053.5.5,0,0,1,.182.227l-.669.794.859.258,1.113-.177.086.935,1.67-.2c-.074.106-.2.275-.39.524l-.179.234.264.131c1.364.672,3.307-.824,3.644-1.1l.181-.039a.652.652,0,0,1,0,.155,11.885,11.885,0,0,0-1.014,1.627l-.168.308.347.048c.247.034.939.14,1.18.213a3.789,3.789,0,0,0,1.1.021l.234.458.579-.277.028-.027a2.263,2.263,0,0,1,.253-.213c.018.087.036.2.051.323l.482-.016a.214.214,0,0,1-.006.034,5.98,5.98,0,0,1,.94-.93l.008,0c.011.209.04.532.113,1l.048.311.289-.128c1.616-.713,2.014-1.64,2.106-2.138l.706.224-.145-2.19,2.412,1.111,2.051,1.759a1.724,1.724,0,0,0-.638.448,1.2,1.2,0,0,0-.319.8,1.284,1.284,0,0,0,.537,1.008,1.881,1.881,0,0,0-.877.474,1.245,1.245,0,0,0-.392.884,1.265,1.265,0,0,0,.45.942h-.116a1.878,1.878,0,0,0,0,3.754h2.338a22.567,22.567,0,0,1,.474,3.607c-.035,0-.071.011-.106.018a1.507,1.507,0,0,0-1.245,1.506l0,.176,1.3.806.058-.008c-.229,5.292-2.061,9.606-4.444,10.264l-.011,0a.225.225,0,0,0-.089.045.046.046,0,0,0-.013.012.2.2,0,0,0-.04.05.091.091,0,0,0-.015.027.006.006,0,0,0,0,0,.071.071,0,0,0-.01.029.068.068,0,0,0-.006.021.118.118,0,0,0-.005.034v.013a.208.208,0,0,0,.005.045.127.127,0,0,0,.01.035.082.082,0,0,0,.006.016.106.106,0,0,0,.016.031.178.178,0,0,0,.037.047,3.082,3.082,0,0,1,.769,1.669v0a3.948,3.948,0,0,1,.045.595,3.093,3.093,0,0,1-1.106,2.519q-.13.073-.237.14a4.6,4.6,0,0,0-.992,6.966l-1.045.875,0,0-.034.024a.236.236,0,0,0-.09.187v3.31a.242.242,0,0,0,.213.24c.079.01,7.906.945,12.357.947s12.271-.937,12.35-.947a.242.242,0,0,0,.213-.24v-3.315a.236.236,0,0,0-.031-.113.243.243,0,0,0-.068-.093l-1.064-.89a4.557,4.557,0,0,0,1-1.848l.1.258.254-.41a2.807,2.807,0,0,1,.416-.521.625.625,0,0,1,.155.187.374.374,0,0,0,.208.2.46.46,0,0,0,.214.026,1.528,1.528,0,0,1,.28.421l.1.524.327-.421c.1-.129.209-.173.252-.163s.086.081.118.223.1.471.374.484a.316.316,0,0,0,.187-.053,1.669,1.669,0,0,1,.292.432.821.821,0,0,0,.564.4c.28.1.522.179.592.545l.192.985.279-.964a9.969,9.969,0,0,1,.419-1.217l.023-.05v-.053a1.564,1.564,0,0,1,.066-.514c.148-.111.142-.306.137-.493-.012-.405.043-.408.156-.413l.207-.01.022-.2c.013-.121.018-.252.023-.39.008-.248.023-.663.126-.744.021-.018.073-.008.1,0l.224.05.061-.221a2.806,2.806,0,0,0,.1-.977l.364-.137-.1-.236a.391.391,0,0,1-.028-.276c.028-.048.121-.064.173-.071.142-.014.26-.029.358-.04.147-.018.284-.032.338-.032a.246.246,0,0,0,.274.032c.169-.087.14-.253.115-.414a1.755,1.755,0,0,1,0-.853l.045-.113-.065-.1a2.032,2.032,0,0,0-.526-.6.717.717,0,0,1,.008-.145l.187-.161-.207-.184c-.429-.381-1.017-.88-1.185-1.022-.023-.06-.044-.124-.06-.176a7.73,7.73,0,0,1,2.277.351l.048.007a2.966,2.966,0,0,0,1.29-.179c.664-.324,1.425-.678,1.569-.714l.577-.047Zm-17.243-8.935a24.581,24.581,0,0,1,4.072,3.773,1.267,1.267,0,0,1-.345.566,8.607,8.607,0,0,1-3.183-2.245l-.039-.032c-.1-.065-.187-.121-.266-.168L376.3,167.8v0c-.045-.2-.088-.408-.129-.618l.268.119.772.345,2.506,2.161-2.372-2.337-.008-.01-.018-.008-1.217-.642c-.023-.137-.047-.277-.068-.418C376.466,166.58,376.858,166.751,377.146,166.871Zm3.835,4.715v0h0v0Zm-5.031-3.24h0l-.211-.081-.084.231a1,1,0,0,0-.052.2c-.185.04-.342.076-.474.106-.045-.257-.09-.514-.132-.771q.428-.039.856-.1C375.882,168.076,375.914,168.213,375.95,168.347Zm-2.579-6.987c0,.348,0,.7.011,1.044-.282.011-.564.018-.847.021,0-.131,0-.26,0-.39,0-.2.005-.4.011-.6l.224-.082C372.973,161.357,373.172,161.36,373.371,161.36Zm-.245-.137c.082-.031.164-.061.247-.09,0,.028,0,.053,0,.081C373.291,161.218,373.209,161.221,373.126,161.223Zm.261,1.326c.011.288.027.575.047.863q-.442.019-.885.024c-.008-.3-.013-.6-.013-.9Q372.962,162.548,373.388,162.548Zm.056,1.011c.016.214.035.43.055.645.01.116.021.232.032.35-.308.013-.614.023-.923.026,0-.089-.011-.179-.018-.268-.018-.256-.031-.513-.037-.769Q373,163.56,373.444,163.559Zm.982-.01c.016.318.037.634.063.951-.292.021-.587.037-.88.05q-.017-.177-.029-.353c-.018-.213-.032-.424-.045-.637C373.833,163.561,374.129,163.558,374.426,163.55Zm-.9-.144c-.016-.285-.029-.571-.035-.856.3,0,.6,0,.9-.01,0,.272.011.544.024.816C374.119,163.379,373.823,163.395,373.525,163.406Zm.885-2.248c-.306.023-.613.039-.921.05,0-.039,0-.079,0-.118.319-.114.635-.224.935-.329C374.423,160.894,374.417,161.026,374.41,161.158Zm-.008.192c0,.079,0,.158-.007.237-.006.253-.008.508,0,.761-.3.021-.6.039-.906.05q-.01-.52,0-1.037C373.791,161.361,374.1,161.358,374.4,161.35Zm-.856,3.356c.037.358.082.714.132,1.072-.311.024-.622.042-.934.05-.056-.377-.1-.758-.126-1.138C372.928,164.7,373.236,164.7,373.546,164.706Zm.076,0c.294,0,.589,0,.884-.013.027.332.061.665.1,1-.287.035-.576.063-.865.085C373.694,165.418,373.654,165.062,373.621,164.706Zm1.063.976q-.051-.493-.087-.99.375-.009.75-.029c.021.253.045.5.073.748l.02.164Q375.061,165.636,374.684,165.681Zm.785.132c.015.118.031.232.047.347.024.169.052.337.079.5-.262.043-.524.081-.787.114-.039-.3-.074-.593-.1-.892Q375.087,165.857,375.469,165.814Zm-.2-2.527c-.25.024-.5.045-.751.063-.01-.269-.016-.54-.016-.811.253-.008.507-.016.758-.03v.084C375.263,162.826,375.266,163.056,375.273,163.287Zm.008.232c.01.308.027.611.05.913q-.375.036-.75.063-.034-.472-.053-.946C374.779,163.542,375.029,163.532,375.281,163.519Zm.026-2.433c-.257.024-.513.047-.771.065.008-.144.016-.289.024-.432l.792-.269C375.334,160.66,375.318,160.871,375.307,161.086Zm-.011.232c-.018.316-.027.637-.029.959-.255.024-.508.045-.763.063,0-.25,0-.5.013-.75q0-.121.01-.242C374.782,161.342,375.039,161.333,375.3,161.318Zm-.669,4.575c.032.3.069.6.111.893q-.421.051-.847.087c-.047-.311-.09-.624-.131-.935Q374.193,165.923,374.626,165.893Zm.139,1.088c.044.289.089.577.137.865-.277.037-.556.069-.835.1l-.073-.387c-.027-.172-.053-.347-.079-.519C374.2,167.023,374.482,167.005,374.765,166.981Zm.171,1.059c.045.26.092.519.14.777-.409.1-.563.145-.572.147l-.234.072-.173-.932C374.378,168.089,374.657,168.068,374.936,168.04Zm.862-.332c-.277.05-.556.092-.835.129-.047-.287-.089-.574-.129-.861.268-.023.535-.048.8-.081.023.124.047.247.071.369C375.734,167.415,375.764,167.561,375.8,167.708Zm4.141-11.978a1.385,1.385,0,0,1-.029.284l-.674.007a2.145,2.145,0,0,0,0-.576c-.006-.045-.013-.092-.022-.137l.661.008A1.405,1.405,0,0,1,379.939,155.73Zm-.158-.655-.613.007q-.043-.162-.1-.32a3.86,3.86,0,0,0-.173-.39A1.353,1.353,0,0,1,379.781,155.076Zm-1.264.226.61.007c.013.048.024.1.034.15a2.151,2.151,0,0,1,.029.565l-.789.008a1.21,1.21,0,0,0,.116-.4A1.386,1.386,0,0,0,378.517,155.3Zm.079-.964c.037,0,.073,0,.108,0a3.4,3.4,0,0,1,.25.466,2.465,2.465,0,0,1,.105.276l-.589,0a1.8,1.8,0,0,0-.232-.482,2.175,2.175,0,0,0-.214-.27Zm-.214.753-.714.006a1.814,1.814,0,0,0-.174-.327,3.474,3.474,0,0,0-.337-.432h.643a1.936,1.936,0,0,1,.34.34A1.661,1.661,0,0,1,378.381,155.09Zm-.016-2.456a.063.063,0,0,0,.018,0,.64.64,0,0,1,.063.279.66.66,0,0,1-.032.2l-.893.01a1.242,1.242,0,0,0-.05-.474c0-.008,0-.016-.008-.024l.9.01Zm-.166-.261a.275.275,0,0,1,.019.021l-.843.01a2.079,2.079,0,0,0-.139-.244,2.151,2.151,0,0,0-.145-.19h.011A1.588,1.588,0,0,1,378.2,152.373Zm-1.975-.4h.669a2.092,2.092,0,0,1,.247.261,1.869,1.869,0,0,1,.119.173l-.711.008c-.018-.029-.037-.06-.056-.089A3.8,3.8,0,0,0,376.224,151.97Zm.237.444-.745.008a.849.849,0,0,0-.2-.4.587.587,0,0,0-.051-.056h.585a3.953,3.953,0,0,1,.381.4Zm1.129-2.195a.087.087,0,0,0,.034-.006.674.674,0,0,1,.091.334.7.7,0,0,1-.013.129l-1.273.015a1.2,1.2,0,0,0-.055-.369c-.011-.039-.026-.078-.04-.116l1.254.015Zm-2,.156a1.478,1.478,0,0,0-.079-.179l.722.008c.024.047.045.094.064.142a1.189,1.189,0,0,1,.079.344l-.737.01A.717.717,0,0,0,375.59,150.375Zm-.5-.771h.658a2.032,2.032,0,0,1,.292.3c.023.029.043.058.066.089L375.4,150l0,0A3.5,3.5,0,0,0,375.094,149.6Zm.2.4-.7.008a.934.934,0,0,0-.184-.311c-.027-.032-.057-.065-.086-.1h.577A3.5,3.5,0,0,1,375.3,150Zm2.138-.024-1.2.013c-.029-.055-.061-.106-.1-.158a2.243,2.243,0,0,0-.176-.229h.406a1.534,1.534,0,0,1,.171.01h.01A1.533,1.533,0,0,1,377.435,149.979Zm-.171-3.054q-.312.031-.625.053l.224-1.046q.411-.021.822-.05Zm.141-11.378a5.451,5.451,0,0,1,.529.6c.076.1.149.206.214.316-.289-.008-.579-.016-.869-.021a5.645,5.645,0,0,0-.648-.7c-.087-.079-.176-.158-.268-.232C376.709,135.521,377.058,135.532,377.4,135.547Zm-1.242-.2a12.05,12.05,0,0,0-1.153-.8c.413.013.827.029,1.24.05q.164.116.324.237c.218.168.431.342.632.527C376.858,135.352,376.511,135.348,376.163,135.347Zm1.045,8.975.222-1.034c.192-.01.384-.021.576-.032l-.244,1.018C377.577,144.291,377.393,144.308,377.208,144.322Zm.5.177-.28,1.174c-.173.018-.347.032-.521.045l.255-1.185Q377.436,144.519,377.709,144.5Zm-.235-1.414.2-.93c.2-.008.4-.016.6-.026l-.217.908C377.864,143.055,377.669,143.071,377.474,143.085Zm.243-1.132.234-1.089c.211-.008.422-.019.633-.03l-.258,1.079C378.124,141.928,377.92,141.942,377.717,141.953Zm1.371-3.261-.187.8c-.221.016-.444.031-.664.043l.171-.806C378.635,138.72,378.862,138.707,379.088,138.693Zm-.638-.156.137-.642a1.685,1.685,0,0,0,.024-.2c.229-.013.46-.026.688-.042a.431.431,0,0,1,0,.047,7.162,7.162,0,0,1-.148.739l-.011.052Zm.4,1.166-.048.211-.169.709c-.214.016-.427.031-.642.045l.194-.9.008-.037C378.414,139.725,378.633,139.714,378.852,139.7Zm-.2,1.129q.292-.014.585-.034-.164.537-.332,1.071c-.174.015-.35.029-.526.04Zm.055-.214.172-.684.058-.235c.211-.011.424-.023.635-.035-.085.3-.174.6-.266.906Q379.009,140.595,378.709,140.617Zm.282-1.13.2-.8c.224-.013.446-.027.669-.043q-.106.4-.219.793C379.423,139.454,379.207,139.472,378.991,139.486Zm.25-1.011,0-.02a7.447,7.447,0,0,0,.159-.75c0-.023,0-.043.007-.066.221-.015.442-.029.663-.047v0a2.112,2.112,0,0,1-.071.467c-.027.118-.056.237-.087.355C379.692,138.438,379.467,138.457,379.241,138.475Zm.179-1.048a2.417,2.417,0,0,0-.061-.5,2.166,2.166,0,0,0-.063-.219c.217.011.435.023.651.037a2.629,2.629,0,0,1,.123.619C379.854,137.39,379.638,137.409,379.42,137.427Zm-.116.01c-.231.019-.463.039-.693.056a2.1,2.1,0,0,0-.116-.566,2.437,2.437,0,0,0-.108-.263l.777.04a2.457,2.457,0,0,1,.077.255A2.268,2.268,0,0,1,379.3,137.437Zm-1.021-.971a3.915,3.915,0,0,0-.253-.392,5.67,5.67,0,0,0-.44-.521q.464.017.929.039c.015.016.027.034.042.052a3.935,3.935,0,0,1,.518.846Q378.681,136.476,378.283,136.466Zm-.026.193a2.662,2.662,0,0,1,.136.3,2.009,2.009,0,0,1,.114.537c-.224.018-.45.034-.676.048a2.442,2.442,0,0,0-.419-.927C377.693,136.632,377.975,136.645,378.257,136.659Zm-.411,1.5a1.4,1.4,0,0,0,.021-.284c0-.047,0-.1,0-.142v0c.215-.01.429-.019.645-.032a1.327,1.327,0,0,1-.02.182l-.135.664c-.2.013-.39.026-.585.037C377.8,138.44,377.823,138.3,377.846,138.157Zm.469.577-.164.809c-.19.013-.379.023-.569.032l.153-.814C377.929,138.756,378.122,138.746,378.315,138.735Zm-.2,1,0,.018-.187.919c-.185.013-.369.024-.555.034l.174-.918.006-.031C377.737,139.752,377.925,139.746,378.112,139.736Zm-.231,1.132-.222,1.088c-.177.013-.355.023-.534.031l.208-1.1Zm-.262,1.288-.19.932c-.173.015-.345.026-.519.037l.181-.95C377.267,142.169,377.443,142.165,377.619,142.156Zm-.232,1.135-.211,1.034c-.166.016-.332.029-.5.04l.2-1.051C377.045,143.308,377.216,143.3,377.387,143.292Zm-.253,1.243-.242,1.185c-.16.015-.321.028-.481.039l.227-1.2C376.8,144.554,376.969,144.545,377.133,144.535Zm-.285,1.4-.213,1.048-.461.032.2-1.058C376.534,145.947,376.69,145.941,376.848,145.931Zm.934-.292c-.116.013-.234.024-.352.034l.3-1.175q.266-.017.529-.039Zm.574-1.425c-.19.021-.38.038-.571.058l.256-1.018c.24-.015.481-.03.719-.048Zm.5-1.251c-.253.026-.506.05-.761.071l.229-.908c.169-.008.339-.016.507-.026-.016.05-.031.1-.047.149.018-.05.034-.1.052-.149l.377-.023Zm.711-1.766-.257.637q-.2.019-.4.034.182-.537.361-1.074c.164-.01.329-.021.5-.032Zm.316-.681c-.177.018-.356.034-.534.048q.148-.452.29-.908c.222-.013.443-.027.666-.043Zm.882-1.891-.345.742c-.237.024-.472.043-.709.063.081-.264.159-.527.235-.794q.416-.026.832-.063C380.778,138.591,380.773,138.607,380.768,138.625Zm.093-.685a2.477,2.477,0,0,1-.032.392l-.816.079c.029-.106.058-.214.085-.324a2.178,2.178,0,0,0,.084-.485v-.016c.216-.016.431-.032.645-.052A2.426,2.426,0,0,1,380.862,137.94Zm-.081-.64c-.2.02-.4.04-.6.058a2.7,2.7,0,0,0-.1-.6c.172.01.343.021.514.032A2.729,2.729,0,0,1,380.781,137.3Zm-1.156-1.651a3.175,3.175,0,0,1,.832.9c-.152-.007-.3-.015-.455-.019a4.617,4.617,0,0,0-.437-.881A.36.36,0,0,1,379.625,135.648Zm.239.871-.647-.024a3.892,3.892,0,0,0-.514-.9l.679.034A4.571,4.571,0,0,1,379.863,136.519Zm-.68-1.155c.01.011.018.023.027.035-.227-.008-.453-.015-.681-.018a5.4,5.4,0,0,0-.376-.413A4.138,4.138,0,0,1,379.183,135.365Zm-2.083-.726.758.26a5.838,5.838,0,0,1,.479.479c-.313-.008-.626-.015-.938-.018a8.666,8.666,0,0,0-.738-.64c-.05-.039-.1-.077-.15-.114Q376.8,134.62,377.1,134.639Zm-.729-.25c-.055,0-.109,0-.163,0-.048-.035-.1-.069-.145-.1Zm-.916-.315c.164.1.326.2.486.307-.4,0-.8-.008-1.2-.007q-.745-.448-1.529-.824h.611a.5.5,0,0,0,.087-.008Zm-2.025-3.023-.672.016a.182.182,0,0,0-.01-.042.567.567,0,0,0-.169-.257l0,0-.7-.781.7.02,0,.01a.242.242,0,0,0,.056.265Zm.84-2.045-.643.013.023-.982.621.011Zm0-1.187-.616.011.01-.389c0-.153.008-.307.011-.46l.6.013Zm-.36-1.677a.36.36,0,0,1,.36.359v.268l-.6.013c0-.061,0-.124-.007-.187a1.425,1.425,0,0,0-.1-.427c0-.008-.008-.018-.013-.026Zm-.86-1.755a.8.8,0,0,1,.005.089.946.946,0,0,1-.116.443l-.613.023,0-.006a.7.7,0,0,0,.055-.181l.035-.185,0-.19a.026.026,0,0,0,0-.011Zm-.053-.227-.6.02a1.533,1.533,0,0,0-.2-.523c-.028-.045-.058-.09-.091-.134l.393.018A1.4,1.4,0,0,1,373,124.161Zm-.847-.842-.2.01a2.169,2.169,0,0,0-.169-.171A3.028,3.028,0,0,1,372.151,123.319Zm-4.768,7.917a.065.065,0,0,1-.019-.047.062.062,0,0,1,.016-.042l.9-.863a.242.242,0,0,0-.168-.416H367a.36.36,0,0,1-.359-.36V126.5a.36.36,0,0,1,.359-.359h1.743a.242.242,0,0,0,.1-.461,1.477,1.477,0,0,1-.991-1.2c0-.835,1.19-1.542,2.6-1.543a4.073,4.073,0,0,1,1,.124c.056.039.113.077.166.119s.127.1.187.158l-1.861.087,2.04.1a1.713,1.713,0,0,1,.144.184,1.5,1.5,0,0,1,.213.48l-3.062.092,3.1.093s0,.011,0,.016l.008.186-.026.184a.733.733,0,0,1-.045.181l0,.01-2.582.094,3.054.111a2.1,2.1,0,0,1-.724.534.206.206,0,0,0-.048.032l-2.065.087,1.977.084a.206.206,0,0,0,0,.07.242.242,0,0,0,.236.189h1.222c.018.027.034.056.05.086a1.311,1.311,0,0,1,.108.382c.006.058.011.116.016.176l-4.262.1,4.27.1c0,.154,0,.31.011.463l.01.39-5.288.1,5.292.1.023.984-5.315.1,5.965.114v.274a.359.359,0,0,1-.184.313l-2.3.061-.065,0-1.924.052,1.867.05.861.843,0,0,0,0a.5.5,0,0,1,.16.211c0,.008,0,.015.008.023l-3.611.093,3.633.093a.384.384,0,0,1-.008.06,1.052,1.052,0,0,1-.284.49,1.08,1.08,0,0,0,.324-.481.5.5,0,0,0,.015-.068l.721.018-.924.89h-4.217Zm-.348,1.47a.058.058,0,0,1,.058-.058h6.727a.06.06,0,0,1,.058.058v.3a.026.026,0,0,1,0,.011.057.057,0,0,1-.056.047h-6.727a.056.056,0,0,1-.055-.045.019.019,0,0,1,0-.013Zm-3.475,2.019.232-.081.231-.079,2.985-1.024a.367.367,0,0,0,.086.008h.524l-2.935,1.277a4.619,4.619,0,0,0-1.133.58,3.881,3.881,0,0,0-.921.887,3.246,3.246,0,0,0-.556,2.435,6.627,6.627,0,0,0,.329,1.227l.4,1.2.8,2.406-.776-2.414-.389-1.208a6.579,6.579,0,0,1-.314-1.222,3.171,3.171,0,0,1,.571-2.375,4.242,4.242,0,0,1,2.022-1.411l0,0h0l3.28-1.384h1.211l-3.528,1.493-.487.207-.244.1-.121.052a1.238,1.238,0,0,0-.124.063,2.864,2.864,0,0,0-.809.7,3.578,3.578,0,0,0-.74,1.977,6.292,6.292,0,0,0,.224,2.1c.086.343.2.677.315,1.011l.335,1,1.346,4.01-1.308-4.022-.326-1.006c-.108-.335-.222-.669-.3-1.009a6.28,6.28,0,0,1-.2-2.083,3.485,3.485,0,0,1,.738-1.917,2.777,2.777,0,0,1,.785-.668c.037-.019.076-.04.113-.056l.121-.05.245-.1.489-.2,3.893-1.608h3.194a17.99,17.99,0,0,1,1.634.826q-2.337.012-4.663.158,2.465-.078,4.931,0l.038.023a13.039,13.039,0,0,1,1.187.792q-3.606-.01-7.208.2,3.706-.133,7.414-.037c.134.1.263.214.39.327a5.556,5.556,0,0,1,.584.6q-4.518-.092-9.035.121,4.588-.128,9.175.058a.173.173,0,0,1,.016.021,2.444,2.444,0,0,1,.444.919,83.371,83.371,0,0,1-9.727.065,82.808,82.808,0,0,0,9.757.113l0,.008c0,.045,0,.089.007.134a1.462,1.462,0,0,1-.018.266c-.023.148-.051.3-.077.445a82.242,82.242,0,0,1-9.5.037,82.432,82.432,0,0,0,9.47.144l-.147.814a78.592,78.592,0,0,1-9.1-.029,78.759,78.759,0,0,0,9.069.21l0,.011-.168.938a73.685,73.685,0,0,1-8.649-.018,73.817,73.817,0,0,0,8.616.2l-.2,1.1a68.058,68.058,0,0,1-8.235-.058,68.184,68.184,0,0,0,8.2.245l-.171.951a63.668,63.668,0,0,1-7.666.055,63.376,63.376,0,0,0,7.632.132l-.189,1.053a57.573,57.573,0,0,1-7.211.1,58.224,58.224,0,0,0,7.176.1l-.214,1.2a52.84,52.84,0,0,1-6.664.068,53.162,53.162,0,0,0,6.629.127l-.19,1.058a46.671,46.671,0,0,1-6.1.02,47.007,47.007,0,0,0,6.066.182l-.2,1.135.216-1.135c.151,0,.3-.01.453-.018.194-.008.386-.018.577-.029l-.45,1.114c-.266.026-.53.048-.8.068a41.769,41.769,0,0,1-5.663.044,41.9,41.9,0,0,0,6.363.132l-.24.6H364.528v0l-.388-.968-.213-.529h0l-.214-.531-.1-.248v0l-.318-.79v-.007l0,0-.208-.511-1.382-3.436-.1-.252-.264-.658-.888-1.9-.2-.437-.1-.218a2.643,2.643,0,0,1-.094-.687,2.749,2.749,0,0,1,.8-1.9c.056-.061.118-.119.18-.176a3.969,3.969,0,0,1,1.742-.895l-.155.116-.406.306a2.2,2.2,0,0,0-.368.366,3.656,3.656,0,0,0-.832,1.856,3.449,3.449,0,0,0,.039,1.022c.032.166.084.331.131.494l.163.482.656,1.924-.618-1.937-.155-.484c-.042-.163-.089-.326-.118-.49a3.47,3.47,0,0,1-.02-1,3.557,3.557,0,0,1,.845-1.787,2.126,2.126,0,0,1,.356-.344l.411-.3.456-.329Zm-2.445,7.2v0L363,146.612l.016.042c-1.17-.618-1.933-1.014-2.43-1.272,0,0,0,0,0,0-.056-.027-.108-.055-.156-.081-.026-.013-.05-.024-.073-.037-.047-.023-.089-.045-.129-.066a.06.06,0,0,1-.018-.008l-.081-.042c-.042-.021-.081-.042-.116-.058s-.081-.04-.113-.058c-.118-.058-.18-.089-.217-.1a.08.08,0,0,0-.02-.008.025.025,0,0,0-.013,0,.021.021,0,0,0-.01,0l-.013,0a.556.556,0,0,0-.132,0l.02-.234.024-.332.214-2.791,0-.01Zm-1.269-.685.4-1.258.652,1.4.1.256Zm-.787,3.222-.039-.047c-.287-.35-.574-.7-.869-1.044l-1.064-1.2-.287-2.781.335-1.679-.455,1.662v.018l.082,2.412-.04-.045-1.714-1.93-.082-4.1v-.006l0,0-.5-3.653.348,3.661-.078,3.744-.832-.938-1.69-1.922,0-.032-.076-1.853-.031-.471c-.011-.156-.038-.311-.058-.468l-.123-.937.044.942c0,.156.018.313.016.471l-.008.471-.029,1.576-3.728-4.243,3.6,4.334-2.915-.482-1.362-.381,1.333.474,0,0,3.178.7.026,0,1.637,1.972.8.959-1.4-.2-.9-.127-.448-.065-.443-.092-3.544-.739,3.513.9.439.111.445.086.892.166,1.753.33L356.443,142l.1.114-1.674-.275-.01,0h0L351.3,141.8l3.53.232.015,0h-.01l2.019.451.972,1.158c.3.368.589.742.879,1.117.02.028.04.053.061.081l-.1-.018-3.641-.63-.019,0h-.015l-1.225.032c-.409.008-.817.028-1.227.021l-2.454-.008h-.008c-.681.071-1.359.156-2.035.263-.338.052-.676.11-1.011.177a9.631,9.631,0,0,0-.995.248,9.21,9.21,0,0,1,1-.208c.335-.055.674-.1,1.013-.139.617-.073,1.238-.126,1.856-.168l-.2,1.424-.616,1.2.755-1.143,0-.008,0-.016.373-1.464,2.31.1c.408.023.818.019,1.227.027l1.045.013-.263,2.127-2.043,2.454,2.2-2.356.018-.018,0-.029.392-2.146,3.37.685.3.06a.81.81,0,0,0-.106.276l-.007.031.037.569.114,1.745-.666-.208.032.361c0,.045.071,1.032-1.553,1.856a5.226,5.226,0,0,1-.066-.893l.032-.342-.746.19-.042.035a10.211,10.211,0,0,0-.771.7,1.628,1.628,0,0,0-.056-.177l-.1-.234-.229.11a2.523,2.523,0,0,0-.6.431l-.084.04-.171-.333-.166.019a4.146,4.146,0,0,1-1.072.011,8.945,8.945,0,0,0-.9-.176,8.99,8.99,0,0,1,.781-1.235l.074-.051.023-.089a1.09,1.09,0,0,0-.066-.729l-.084-.166-.7.152-.045.038c-.018.015-1.692,1.411-2.878,1.169.221-.3.3-.419.3-.426l.052-.079-.1-.589-1.693.2-.087-.955-1.514.242-.047-.015.342-.4-.013-.1a.964.964,0,0,0-.4-.655,1.419,1.419,0,0,0-1.134-.149,3.563,3.563,0,0,1,.934-1.145l.029-.023.021-.03a3.7,3.7,0,0,1,.4-.468l.627-.213.431-.816,2.195-.569,1.29-.2.055-.05c.226-.208.743-.732.64-1.122-.132-.492-1.242-.787-1.869-.71a2.034,2.034,0,0,1-.974-.226.331.331,0,0,0,.064-.3c-.056-.218-.3-.378-.784-.522a2.443,2.443,0,0,1-.895-.473,1.316,1.316,0,0,1,.692-.538l.27-.044-.076-.263a2.037,2.037,0,0,0-.472-.664,1.866,1.866,0,0,1,.131-.2l.1-.129-.518-.884a1.906,1.906,0,0,1,.276-.224l.343.073-.111-.387c-.024-.081-.048-.182-.076-.292a5.171,5.171,0,0,0-.289-.937l.519-.016-.113-.313a1.65,1.65,0,0,0-.45-.722.818.818,0,0,1-.084-.315l.331-.071.007-.189a4.246,4.246,0,0,1,.2-1.193,1.846,1.846,0,0,1,.629.25.633.633,0,0,1,.158.144l.031.066.065.037a.429.429,0,0,0,.376.026.59.59,0,0,0,.32-.435,1.056,1.056,0,0,1,.083-.236,1.781,1.781,0,0,1,.853.436l.09.079.116-.024a7.025,7.025,0,0,1,1.031-.139,1.937,1.937,0,0,1,.558.566l.227.726.234-.724c.034-.1.063-.2.087-.293a1.992,1.992,0,0,1,.848,1.076l.2.6.252-.582c.26-.6.69-1.387.914-1.788a9.82,9.82,0,0,1,1.3,1.346,17.693,17.693,0,0,1,.79,2.378l-.211.942,0,.035a2.1,2.1,0,0,0,.5,1.319.577.577,0,0,0,.471.113l.045-.01.039-.024a3.076,3.076,0,0,0,1.068-2.5,8.863,8.863,0,0,1,1.553-3.164,2.453,2.453,0,0,0,.4-.721l.294.355.426.2c.187.959.332,1,.448,1.027a1.394,1.394,0,0,0,.557-.057,3.594,3.594,0,0,1,.346,1.529v.058l.026.052a.876.876,0,0,0,.758.355l-.3.1a4.686,4.686,0,0,0-1.858.79c0-.11,0-.218,0-.326-.008-.361-.024-.721-.055-1.08a8.669,8.669,0,0,0-.4-2.117,8.6,8.6,0,0,1,.318,2.122c.018.358.019.717.014,1.075,0,.144-.006.287-.013.431a3.325,3.325,0,0,0-1.327,2.6,3.062,3.062,0,0,0,.119.842.211.211,0,0,0,.021.052l.343.737v0l-.672,1.88-.007.018v.026l-.3,2.893Zm2.915,2.525-2.814-1.295,0-.032a.421.421,0,0,1,.371-.274c.2.094,1.122.576,2.125,1.1,0,0,0,0,0,0,.561.292,1.145.6,1.64.861l.131.324.343.855Zm1.224,3.56a.728.728,0,0,1,.2-.487,1.385,1.385,0,0,1,.764-.413,1.352,1.352,0,0,1,.2-.032h.01a1.537,1.537,0,0,1,.171-.01h.237c-.032.018-.064.037-.1.056a1.668,1.668,0,0,0-.429.373.729.729,0,0,0-.172.534.946.946,0,0,0,.239.5.943.943,0,0,1-.2-.5.676.676,0,0,1,.194-.479,1.616,1.616,0,0,1,.429-.319,2.825,2.825,0,0,1,.366-.161h9.051a2.037,2.037,0,0,1,.2.15.966.966,0,0,1,.173.192.509.509,0,0,1,.039.065l-7.779.087,7.835.087.814.01a1.408,1.408,0,0,1,.113.2.716.716,0,0,1,.079.31l-8.059.093,8.806.1a1.508,1.508,0,0,1-.123.463,1.565,1.565,0,0,0,.158-.463l1.2.015a1.442,1.442,0,0,1-1.24.576H364.541C363.8,151.487,363.2,151.066,363.2,150.546Zm-.485,1.827a1.587,1.587,0,0,1,1.1-.4h.6a1.933,1.933,0,0,0-.464.345.925.925,0,0,0-.2.3.677.677,0,0,0-.031.358,1.228,1.228,0,0,0,.358.6,1.205,1.205,0,0,1-.318-.606.691.691,0,0,1,.245-.6,2.047,2.047,0,0,1,.581-.356c.037-.016.076-.031.114-.045H375.31a1.67,1.67,0,0,1,.145.113.958.958,0,0,1,.173.19.564.564,0,0,1,.074.148l-8.454.092,9.348.1c.019.034.038.068.055.1a.614.614,0,0,1,.066.4.642.642,0,0,0-.029-.418c-.011-.031-.023-.06-.036-.089l.721.008a.441.441,0,0,1,.023.052,1.187,1.187,0,0,1,.084.45l-9.382.108,9.364.108a1.921,1.921,0,0,1-.108.347,1.74,1.74,0,0,0,.134-.345l.8.008a1.473,1.473,0,0,1-1.129.5l-.031,0a.116.116,0,0,1-.024,0H363.809a.089.089,0,0,1-.021,0l-.034,0c-.711-.018-1.288-.439-1.288-.938A.765.765,0,0,1,362.713,152.373Zm-.4,4.75a1.394,1.394,0,0,1,0-2.786h.98c-.061.044-.121.09-.179.139a1.761,1.761,0,0,0-.519.7,1.334,1.334,0,0,0-.032.856,2.329,2.329,0,0,0,.392.756,2.316,2.316,0,0,1-.353-.766,1.273,1.273,0,0,1,.068-.816,1.685,1.685,0,0,1,.521-.633,2.937,2.937,0,0,1,.358-.232h12.642a1.9,1.9,0,0,1,.261.19,1.032,1.032,0,0,1,.174.192.505.505,0,0,1,.094.239.738.738,0,0,0-.21-.485,1.449,1.449,0,0,0-.127-.136h.574a3.781,3.781,0,0,1,.468.479,1.74,1.74,0,0,1,.189.282l-9.519.1,9.6.1a.52.52,0,0,1,.014.272.534.534,0,0,0,.013-.272l.719.008a1.2,1.2,0,0,1,.029.324,1.183,1.183,0,0,1-.085.4l-9.511.1,10.28.11a2.021,2.021,0,0,1-.207.544,2.024,2.024,0,0,0,.242-.544l.647.008a1.35,1.35,0,0,1-1.153.871c-.031,0-.061,0-.094,0Zm10.122,1.672a17.011,17.011,0,0,0-2.114.911,14.387,14.387,0,0,1-2.315.945c-.024-.326-.052-.65-.082-.976-.068-.69-.145-1.38-.244-2.069h7.964l-.709.443-.187.118-.223.139a5.423,5.423,0,0,0-.772.114c-.05.01-.1.023-.158.034-.239.055-.517.129-.835.232Zm-6.016-1.188h1.1c.113.69.2,1.385.282,2.082q.056.5.1.995c-.416.123-.794.209-1.135.276C366.7,159.838,366.591,158.722,366.422,157.608Zm.227,3.376c-.368.068-.692.111-.974.15l-.065.01a23.332,23.332,0,0,0-.461-3.536h1.111C366.444,158.723,366.567,159.854,366.649,160.984Zm-1.508.884.014,0c.142-.026.3-.05.481-.074l.126-.018c.272-.037.58-.079.927-.141.037-.006.076-.013.114-.021.348-.064.734-.15,1.158-.272l.09-.026a14.71,14.71,0,0,0,2.566-1.03l.014-.007.479-.235c.521-.247.987-.437,1.4-.585l.129-.045c.327-.114.616-.2.864-.264l.147-.037a5.409,5.409,0,0,1,.961-.159h.11l.044-.028.208-.129.374-.234.269-.168.556-.347.1-.061,0,0,.092-.058.144-.011h0l.793-.065-.971,1.6-.4.132-.507.166c-.189.063-.4.132-.619.208l-.638.217-.638.224-.129.045c-.272.1-.55.2-.824.3l-.106.04c-.41.152-.813.3-1.187.455-.029,0-.056,0-.086,0a14.357,14.357,0,0,1,1.411-.88c.119-.063.24-.124.363-.181l.311-.135.079-.032c.258-.1.53-.16.8-.237.537-.147,1.075-.293,1.616-.429-.545.119-1.087.25-1.629.381-.269.069-.544.122-.81.216-.1.034-.194.07-.287.108l-.285.126c-.068.03-.136.063-.2.1a14.838,14.838,0,0,0-1.45.845c-.058.038-.118.077-.176.118l-.051.034c-.179.121-.358.244-.534.369-.081.037-.156.073-.229.108a8.293,8.293,0,0,1-.81.334l-4.717.132A.829.829,0,0,1,365.141,161.868Zm7.322.558q-1.1.014-2.206-.044c.047-.023.094-.043.139-.066.526-.253,1.269-.552,2.061-.848,0,.189,0,.378,0,.566C372.459,162.165,372.46,162.3,372.464,162.426Zm-8.024.139.01-.043,4.1-.2c-.147.043-.294.086-.442.126l-.073.02c-.413.11-.822.2-1.2.287l-.1.021c-.426.09-.8.16-1.087.21l-.424.07-.06-.037Zm1.187,1.072c.276-.047.664-.116,1.116-.21q0,.6-.016,1.2c-.02.6-.057,1.195-.119,1.788s-.144,1.187-.26,1.774a12.338,12.338,0,0,1-1.13,3.391,12.357,12.357,0,0,0,1.171-3.383c.123-.587.211-1.18.279-1.775s.113-1.193.14-1.792c.018-.409.027-.817.029-1.227.378-.079.794-.174,1.221-.284.013.386.018.769.016,1.155a22.2,22.2,0,0,1-.142,2.295,21.712,21.712,0,0,0,.182-2.295q.012-.585.007-1.171a14.125,14.125,0,0,0,2.123-.719q1.108.106,2.222.142c.007.3.015.6.029.906q-1.178.014-2.356-.052,1.178.119,2.362.156c.012.258.028.516.05.774.008.089.016.177.024.265-.792.013-1.583,0-2.375-.048.792.079,1.588.132,2.385.156.037.382.084.763.147,1.14a21.182,21.182,0,0,1-2.638-.079,21.231,21.231,0,0,0,2.657.2c.037.21.079.419.128.627-.045-.208-.084-.418-.116-.627.313.007.625,0,.938-.006.043.313.092.626.142.937a22.869,22.869,0,0,1-3.847,0,23.182,23.182,0,0,0,3.873.163c.027.174.056.35.085.524l.076.384a24.632,24.632,0,0,1-4.214.047,24.839,24.839,0,0,0,4.246.118l.184.937-.073.023.015.019a26.139,26.139,0,0,1-4.51.047,26.252,26.252,0,0,0,4.631.11l.364.476-.24.09-.013,0-.33.126.035.177-.11.055a28.479,28.479,0,0,1-4.525.015,28.646,28.646,0,0,0,4.193.153l-.73.366.371.227a.823.823,0,0,1,.282.268.518.518,0,0,1-.069.1,30.624,30.624,0,0,1-4.246-.1,31.307,31.307,0,0,0,4.131.235,8.451,8.451,0,0,1-.626.606l-.187.164.169.182a1.382,1.382,0,0,1,.137.176,27.974,27.974,0,0,1-4.027-.15,28.128,28.128,0,0,0,4.089.26.168.168,0,0,1,.018.05c-.061.158-.239.511-.3.639l-.1.2.189.118c.1.061.208.134.279.182,0,.018,0,.037-.005.058a26.632,26.632,0,0,1-4.689-.079,26.947,26.947,0,0,0,4.675.192c0,.016,0,.032-.007.047-.039.285-.055.427.01.542a.3.3,0,0,0,.25.161h0l.082.137.247.05-.182.015c-.2.018-.406.032-.606.043l-.39.024q-.583.034-1.14.048c-.166,0-.329.008-.492.011q-.428.007-.842.008c-.287,0-.569,0-.843-.008s-.539-.013-.8-.024h0c-.261-.01-.516-.023-.764-.037s-.5-.03-.734-.05c-.074,0-.147-.011-.219-.018-.218-.018-.429-.037-.635-.058-.36-.037-.7-.076-1.027-.116l-.32-.042a.009.009,0,0,1-.006,0l-.3-.042-.36-.055c-.116-.018-.229-.037-.34-.056l-.161-.027c-.1-.018-.2-.034-.287-.051a.015.015,0,0,1-.008,0c-.14-.026-.276-.052-.4-.078-.177-.035-.343-.071-.5-.1l-.113-.024c-.253-.056-.471-.11-.653-.156C363.748,172.928,365.423,168.693,365.627,163.637Zm-4.26,11,.06.015c.106.027.222.056.35.086l.021,0,.2.047.247.053.218.047.032.006.268.053.171.034.268.755-.11-.726q.346.063.739.126c.055.01.111.018.169.026.169.026.347.051.53.077q.457.066.963.121l.229.024c.2.023.416.042.634.061l.327.028c.09.008.182.014.274.021l.274.019.234.015c.235.015.477.028.724.037.131.006.264.011.4.016l.236.006c.05,0,.1,0,.153,0q.235.007.474.01c.179,0,.361,0,.545,0s.365,0,.548,0c.153,0,.306,0,.463-.01.5-.011,1.026-.031,1.561-.063l.3-.018c.1-.007.2-.013.306-.021l.208-.014.409-.034c.024,0,.047,0,.069-.006.074-.007.148-.011.223-.019l-.089.093c-.426.448-.6.638-.555.855a.294.294,0,0,0,.116.19c-.332.029-.656.052-.977.071l-.548.031c-.24.011-.476.021-.708.027q-.436.014-.855.019c-1.071.015-2.065-.014-2.981-.069-.182-.011-.363-.024-.539-.037s-.351-.027-.521-.042c-.124-.01-.245-.021-.365-.034-.177-.016-.35-.035-.517-.053-.1-.011-.207-.024-.306-.037s-.174-.021-.26-.032-.171-.021-.255-.034-.166-.021-.247-.034c-.169-.024-.334-.048-.492-.074-.069-.011-.137-.021-.2-.034s-.147-.023-.218-.037c-.285-.048-.551-.1-.8-.148-.122-.024-.24-.048-.351-.073-.226-.048-.431-.1-.613-.14A3.846,3.846,0,0,0,361.366,174.637Zm-1.89,11.926v0c.207.035.423.069.65.106l.232.035c.158.024.321.048.489.071s.339.047.516.07l.152.019.131.016-.348.521.5-.5c.223.026.45.053.687.079.163.018.329.034.5.052.035,0,.071.006.108.011l.532.05.1.01q.324.029.663.055c.113.01.226.018.34.026l.489.034c.166.011.334.021.5.031l.074,0q.52.029,1.069.052c.1,0,.2.008.295.011.3.011.6.019.91.027.269.006.547.011.824.014h.024q.421,0,.852,0h.008c.526,0,1.067,0,1.621-.018h.015c.255-.007.514-.013.777-.021l.1,0c.274-.01.552-.02.832-.032l.353-.016c.329-.016.663-.035,1-.055l.445-.029c.369-.026.74-.053,1.117-.082.5-.042,1.014-.087,1.533-.139.258-.026.521-.053.784-.082l.23-.026q.506-.058,1.018-.122l.642.737-.21.027a.17.17,0,0,1-.029,0c-.147.021-.293.039-.44.056-.292.039-.582.073-.871.105q-.377.043-.75.082l-.555.056c-.353.035-.7.068-1.046.1l-.581.047c-.2.016-.4.031-.6.045q-.9.065-1.764.1c-.159.008-.318.015-.474.021l-.406.016-.526.018-.292.008c-.055,0-.11,0-.164,0-.15,0-.3.008-.445.01-.3,0-.6.01-.887.01-.04,0-.081,0-.121,0h-.31c-.356,0-.708,0-1.05-.006-.219,0-.435-.008-.648-.013-.329-.008-.651-.018-.966-.029-.168-.006-.332-.013-.5-.021l-.243-.011c-.161-.007-.321-.016-.479-.024l-.3-.018c-.227-.013-.452-.027-.671-.043-.169-.011-.335-.024-.5-.037l-.529-.043c-.1-.008-.192-.016-.285-.026-.179-.016-.355-.032-.526-.05s-.366-.037-.542-.056l-.032,0-.231-.026q-.344-.039-.663-.081a.379.379,0,0,0-.047-.006l-.248-.033-.32-.043-.306-.043c-.822-.121-1.5-.239-2.006-.339Zm23.062,3.9c-1.287.15-8.075.916-12.085.918s-10.794-.767-12.08-.918v-2.8c.608.123,1.492.282,2.625.437l.076,2.146.076-2.125c.858.116,1.854.227,2.978.319.068,0,.135.01.2.016l.382.029c.221.016.448.031.679.045h.005c.218.014.44.027.666.038.416.021.847.04,1.288.055.086,0,.171.006.258.008l.108,0c.082,0,.164,0,.247.006q.873.022,1.809.023l.75,0c.174,0,.35,0,.527-.008l.1,0c.211,0,.426-.008.642-.014q.474-.012.963-.032c.2-.008.4-.016.6-.026.026,0,.053,0,.079,0,.227-.011.455-.024.685-.037a.886.886,0,0,0,.094,0q1.112-.065,2.287-.166c.324-.027.65-.058.98-.09.086-.008.173-.016.258-.026.417-.043.842-.09,1.269-.14.142-.016.287-.032.431-.052.274-.034.55-.069.829-.106l.031.867a73.953,73.953,0,0,1-13.842.653,73.9,73.9,0,0,0,13.85-.448l.029.817a61.725,61.725,0,0,1-11.154.689,61.971,61.971,0,0,0,11.16-.49q1.1-.148,2.2-.339Zm0-1c-.727.141-1.459.266-2.191.378l.031-.822q1.081-.138,2.161-.31Zm0-1q-1.074.186-2.153.342l.031-.874c.256-.034.514-.069.774-.108q.665-.1,1.348-.207Zm-.334-1.283,0,0q-.98.155-1.927.28l-.522-.751c.185-.023.369-.047.555-.071.236-.032.473-.064.711-.1l.359-.05Zm.118-2.657a29.785,29.785,0,0,1-9.222,1.063,29.869,29.869,0,0,0,9.122-.792,4.114,4.114,0,0,1-.768,1.2l-.408.06q-.612.089-1.211.164c-.134.016-.266.032-.4.05l-.4.047c-.131.016-.263.03-.392.045s-.261.03-.39.043-.258.027-.387.04c-.258.028-.513.053-.766.076l-.135.013-.56.05-.876.07-.608.042c-.135.01-.271.018-.406.026l-.572.032-.155.01c-.337.016-.669.032-1,.044-.23.01-.458.018-.684.024-.794.024-1.561.035-2.3.035-.658,0-1.293-.01-1.9-.024q-.455-.012-.89-.029h0c-.29-.011-.576-.024-.853-.039-1.119-.056-2.135-.135-3.038-.224q-.319-.029-.619-.063c-.123-.013-.242-.026-.358-.04l-.126-.015a6.77,6.77,0,0,1-.55-.527,5.119,5.119,0,0,1-.663-.863,2.944,2.944,0,0,1-.4-1.009,1.9,1.9,0,0,1,.111-1.074,2.081,2.081,0,0,0-.155.527,2.058,2.058,0,0,0,0,.553,3.012,3.012,0,0,0,.369,1.043,5.379,5.379,0,0,0,.642.9q.189.215.392.416l-.646-.083q-.126-.014-.247-.034c-.521-.071-.971-.142-1.347-.2l0,0a4.115,4.115,0,0,1,.779-6.358c.066-.043.132-.082.2-.119l.015-.008.021-.013a3.528,3.528,0,0,0,1.329-2.927c0-.107,0-.213-.011-.316.114.028.235.055.364.082l.26.055c.018,0,.037.008.057.011.043.01.089.019.134.027s.118.024.179.035l.163.032c.092.016.185.034.282.05.05.01.1.018.15.026a3.956,3.956,0,0,1,.074.732,3.584,3.584,0,0,1-.082.819,2.627,2.627,0,0,1-.3.766,2.4,2.4,0,0,1-.543.624,2.355,2.355,0,0,0,.577-.6,2.716,2.716,0,0,0,.345-.768,3.849,3.849,0,0,0,.124-.837,4.29,4.29,0,0,0-.031-.7c.369.061.771.123,1.2.179.082.011.166.023.251.032.168.021.339.04.516.06.09.011.182.021.274.031a.072.072,0,0,1,.018,0c.258.026.524.05.8.071.3.024.618.047.942.065l.315.016c.1,0,.2.01.3.013q.469.019.966.029c.1,0,.2,0,.3,0,.345,0,.7,0,1.061,0l.411-.008c.176,0,.353-.01.532-.015.331-.013.668-.029,1.009-.048.181-.011.363-.023.547-.035.113-.007.226-.016.338-.026l-.164.229.439.169-.018.234c-.861.042-1.725.042-2.587,0q1.287.1,2.58.078l-.058.761c-.487.01-.976,0-1.463-.016.485.037.971.056,1.46.063l-.008.093.484-.093c.15,0,.3,0,.451-.008l.348.011a.232.232,0,0,1-.011.083,2.434,2.434,0,0,1-.272.542l-.256.386c-.566.021-1.13.019-1.7,0,.734.051,1.471.069,2.206.051a5.844,5.844,0,0,0,.068.893q-1.2.1-2.4.089,1.2.044,2.409-.021c.006.037.01.068.013.087l.066.445.5-.446h.284a.74.74,0,0,1,.285.384c.007.081.01.189.01.3a27.54,27.54,0,0,1-3.049.126,28.28,28.28,0,0,0,3.049-.04c0,.285-.016.58-.016.585l-.013.255c-.893.073-1.792.1-2.688.09q1.34.056,2.685-.018l-.008.158.248-.171,0,0h0c.142-.008.285-.018.427-.029,0,.013,0,.029.006.045l-.176.924a29.069,29.069,0,0,1-3,.082,28.675,28.675,0,0,0,2.981,0l-.04.214.261-.227.3-.018a.246.246,0,0,0,.4.239,6.477,6.477,0,0,1,.232.663l.02.071a29.731,29.731,0,0,1-4.306.176,29.875,29.875,0,0,0,4.333-.068l.084.321.252-.351a29.771,29.771,0,0,0,4.1-.7l.024,0c.1.065.2.14.288.214A3.859,3.859,0,0,1,382.322,184.528Zm-5.905-2.269.016-.011a.356.356,0,0,1,.219-.068.1.1,0,0,1,.032.052Zm.436,1,.159-.139.008-.007a.847.847,0,0,1,.034.126Zm4.125-2.6c-.01.051-.021.1-.034.156l-.006.052c-.007.168-.015.376-.015.589-.2.055-.408.1-.613.153.007-.016.015-.032.021-.048l.006-.016c.092-.224.163-.439.226-.629.02-.06.039-.114.056-.168v0Q380.8,180.712,380.978,180.667Zm-.267-.153c.081-.2.156-.314.253-.316a.422.422,0,0,1,.036.234C380.9,180.46,380.807,180.488,380.71,180.513Zm.213,1.163a2.428,2.428,0,0,0,.077.743.483.483,0,0,0,.1.143c-.619.15-1.245.281-1.874.389a2,2,0,0,1,.153-.212,1.338,1.338,0,0,0,.2-.121c.014-.01.031-.021.047-.034a2.208,2.208,0,0,0,.584-.756C380.449,181.782,380.686,181.731,380.923,181.676Zm.411,1.04s0,0,.008,0a.456.456,0,0,1,.124.079,5.764,5.764,0,0,0,.211.693l.032.086a29.092,29.092,0,0,1-3.552.679,5.644,5.644,0,0,1,.629-.766,1.406,1.406,0,0,0,.331-.371Q380.232,182.962,381.334,182.716Zm11.2-6.166a2.579,2.579,0,0,1-1.04.134c-2.525-.621-2.749-.287-2.824-.177-.042.061-.131.192.09.718l.023.053.044.037c.006.007.606.513,1.09.937a1.229,1.229,0,0,0-.006.419l.024.129.113.057a1.209,1.209,0,0,1,.389.4,2.078,2.078,0,0,0-.02.813c-.079,0-.171.016-.279.029s-.211.026-.35.04a.659.659,0,0,0-.543.313.7.7,0,0,0-.066.464l-.3.111.047.207a2.113,2.113,0,0,1-.019.766.524.524,0,0,0-.26.107c-.285.219-.3.671-.314,1.109,0,.061,0,.119-.007.176-.422.144-.408.642-.4.87,0,.045,0,.1,0,.141a1.268,1.268,0,0,0-.2.808c-.04.093-.132.319-.25.674a1.58,1.58,0,0,0-.613-.33c-.115-.039-.257-.087-.276-.132a2.638,2.638,0,0,0-.61-.8l-.272-.239-.015.045a.6.6,0,0,0-.414-.374.634.634,0,0,0-.472.093,3.552,3.552,0,0,0-.335-.418l-.118-.121-.153.064h0a.908.908,0,0,0-.535-.437c-.216-.028-.479.256-.66.493a.04.04,0,0,0-.01-.008v0a2.464,2.464,0,0,0-.208-.185c-.086-.071-.171-.134-.24-.182l-.01-.008c-.052-.035-.094-.063-.124-.082l-.043-.029-.284-.042a4.185,4.185,0,0,1-.142-.482.465.465,0,0,0-.042-.124.52.52,0,0,0-.155-.186,1.55,1.55,0,0,0-.187-.11.911.911,0,0,1-.118-.064,3.642,3.642,0,0,1-.036-.664c0-.073,0-.15,0-.227,0-.137,0-.277.011-.411a2.257,2.257,0,0,0,.061-.385c0-.023,0-.047,0-.071a1.227,1.227,0,0,0,0-.174.9.9,0,0,0-.042-.213.267.267,0,0,0-.013-.035.052.052,0,0,0-.007-.016.381.381,0,0,0-.023-.047.443.443,0,0,0-.047-.074.472.472,0,0,0-.384-.186h0a.63.63,0,0,0-.081,0,.127.127,0,0,0-.023,0,.535.535,0,0,0-.071.015.267.267,0,0,0-.052.018.021.021,0,0,0-.01,0,.139.139,0,0,0-.026.011l-.011,0c-.276.136-.41.482-.547.884-.011.035-.024.071-.035.108s-.024.073-.037.111c-.022.068-.047.139-.074.21-.013.039-.027.079-.042.119-.023.058-.044.114-.068.172a3.144,3.144,0,0,1-.182.373,2.058,2.058,0,0,1-.132.2,1.452,1.452,0,0,1-.16.181l-.053.047a1.025,1.025,0,0,1-.211.137c-.1.053-.184.164-.335.39a2.768,2.768,0,0,1-.264.355l-.027.024a.934.934,0,0,0-.144.127,5.143,5.143,0,0,0-.377.447c-.029-.084-.065-.174-.1-.274a1.08,1.08,0,0,0-.057-.114.536.536,0,0,0-.082-.1.4.4,0,0,0-.184-.106.562.562,0,0,0-.063-.01c-.028-.1-.065-.187-.1-.266a.334.334,0,0,0-.234-.2l-.01,0,.037-.2,0-.034a.49.49,0,0,0-.01-.074.653.653,0,0,0-.021-.1.586.586,0,0,0-.315-.434.556.556,0,0,0-.306-.045c0-.09,0-.189,0-.285,0-.032,0-.066,0-.1,0-.108,0-.209-.01-.29a.69.69,0,0,0-.074-.26,1.139,1.139,0,0,0-.194-.28c-.019-.021-.039-.04-.056-.058s-.029-.027-.042-.039a1.6,1.6,0,0,0-.186-.15l-.061-.042-.579,0a3.393,3.393,0,0,1-.029-.575s0-.007,0-.01a.435.435,0,0,0,.007-.081.392.392,0,0,0-.1-.266.385.385,0,0,0-.082-.073,2.532,2.532,0,0,0,.166-.39.682.682,0,0,0,.03-.274.481.481,0,0,0-.021-.1.513.513,0,0,0-.244-.3l-.048-.023-.906-.031-.013,0,.024-.319.008-.091.04-.527-.191-.073.04-.056.377-.523.023-.032-.378-.3c.085-.1.192-.209.281-.3.055-.058.113-.118.169-.179a1.085,1.085,0,0,0,.208-.31.636.636,0,0,0,.024-.489.372.372,0,0,0-.055-.1l-.057-.076-.955-.194-.176-.3c0-.015,0-.029,0-.04.006-.05.013-.1.018-.139s.01-.087.011-.126a.365.365,0,0,0-.092-.33,2.328,2.328,0,0,0-.226-.161c.082-.163.19-.387.237-.514a.415.415,0,0,0,.018-.208.48.48,0,0,0-.031-.124,1.173,1.173,0,0,0-.155-.292,4.016,4.016,0,0,0,.74-.827.418.418,0,0,0,.048-.115.241.241,0,0,0,.006-.037.607.607,0,0,0-.193-.5l.674-.338,0,0,.1-.05-.019-.1-.008-.04.509-.192,0,0,.153-.058.038-.015.106-.04-.156-.2-.057-.074-.252-.327.179-.043.045-.01c.177-.042.4-.092.685-.153l.255-.048.014,0-.006-.018-.045-.132.256.1.284.108.3.118.279.106-.024-.127c.044.026.094.056.148.093a12.107,12.107,0,0,0,2.061,1.7,6.442,6.442,0,0,0,1.145.592l.121.043-.019.048-.126.319-.126.319-.442,1.119-.679.063-.668.061-1.287.118-.018,0-.011.006-2.146,1.1h0l-.153.079.192-.084,2.161-.943,1.53-.051.49-.016h0l.335-.011h0l.179-.006-.013.081-.243,1.745-.527.145-.082.023-.011,0-.764.209-.016,0-.7.19-.024.007-.013.013-.459.419-.037.034-.135.124-.726.661-.189.173-.447.408.519-.416.224-.179.637-.511.116-.092.3-.243.285-.229h0l.229-.047.161-.034,1.29-.265.289-.058.047-.01-.055,1.214,0,.109v.011l-.018.376-.011.232-.016.363-.076.25v0l-.108.361-.074.245-.226.747-.063.208-.043.145-.043.143-.194.639-.048.161,0,.007-.034.111-.224.739-.043.145-.163.54-.01.035-.04.132.044-.123.011-.032.195-.558.05-.147.237-.677.039-.111.024-.069.06-.173.2-.56.048-.139.084-.24.076-.216.263-.751.089-.257.027-.079.15-.431,0-.01,0-.015.026-.29.194-2.214v0l.06-.328.156-.855,0,0,.1-.579.06-.322.292-.666.15-.345.137-.311.116-.265.216.329.213.323.171.26,1.342,2.033-.142.519-.434,1.587-.007.026,0,.018-.019,2.719v.015l.232,1.356v0l.152.885.027.163.04.232-.027-.258-.011-.1-.069-.658h0l-.174-1.637.192-2.672.374-1.092.06-.174.124-.363.943,2.03.034.074-.034.256-.039.495-.056.742v.018l.161,2.054.081,1.029c.016.343.021.687.033,1.03.008-.343.024-.688.026-1.032l-.021-1.031,0-.239-.037-1.819v0l.037-.27v-.013l.094-.7c.272.582.547,1.161.809,1.746.082.181.163.365.242.547l0,.163.018.721.074,1.675v.007l.2,1.238-.092-1.245.023-.493.029-.677v0l.032-.714q.244.576.474,1.156c.315.8.61,1.609.847,2.436-.211-.834-.479-1.654-.768-2.466-.14-.392-.285-.784-.435-1.172l.21.116.7.387,1.331,1.682-1.184-1.816-.008-.013-.021-.013-1.129-.763,0,0-.043-.042-.061-.058q-.143-.36-.289-.717c-.248-.608-.509-1.21-.767-1.811l.116.035,1.063.324,2.828,2.47-2.7-2.654-.015-.015-.026-.01-1.432-.532c-.026-.063-.053-.124-.079-.187l-.86-2.021.46.164,1.622.577,1.626,1.1,2.254,1.98-2.133-2.124,0,0-.008,0-1.575-1.222-.013-.008-.022-.011-2.491-1.067-.01.026-.063-.1-1.272-2.072-.2-.323-.2-.322-.092-.148.656.148.526.118.006,0,.54.122.542.123.761.171,3.43,1.438,1.727.722c.576.24,1.163.455,1.743.682-.569-.253-1.145-.494-1.709-.759l-1.693-.8-.611-.289.086-.253.622-1.841,2.106-1.05-2.206.918-.029.011-.013.034-.851,2.046-2.361-1.116.127-.429.874-2.936,1.761-1.316-1.851,1.229-.016.011-.008.021-1.182,3.314-1.156-.31-.572-.153-.577-.155-.819-.219a1.835,1.835,0,0,0,.245-.4c.047-.1.09-.214.131-.332s.074-.237.1-.363a12.257,12.257,0,0,0,.24-1.329c.019-.147.042-.311.056-.371a2.99,2.99,0,0,0,.168-1.019c.019-.221.039-.429.058-.542a.71.71,0,0,1,.26-.392l.187-.131-.074-.121a2.845,2.845,0,0,1,.242-.382.412.412,0,0,0,.35.081.984.984,0,0,0,.411-.236l1.155-.79a.944.944,0,0,0,.319.382l.068.05.084,0a2.264,2.264,0,0,0,1.066-.379,1.658,1.658,0,0,0,.089.226l.079.171.84-.161q-.012.058-.034.145l-.058.221.216.071c.3.1.615.208.822.284-.113.25-.306.674-.53,1.161l-.089.19.177.114a3.077,3.077,0,0,0,1.426.272.476.476,0,0,0,.055.442c.053.063.148.173.958.2l.014.369.107.068c.014.01.318.2.751.435a1.722,1.722,0,0,1-.429.668l-.253.242.316.15c.016.008.361.173.751.337.016.276.28.481.556.7.061.047.126.1.194.153a3.709,3.709,0,0,0-.321.6l-.048.118.511.782.534.346a.356.356,0,0,0-.145.168.727.727,0,0,0,.086.621,1.576,1.576,0,0,0,.363.343.6.6,0,0,0-.132.355c0,.087,0,.222.434.434a.518.518,0,0,0-.031.258.578.578,0,0,0,.2.318C393.523,176.076,393.1,176.277,392.538,176.55Z" transform="translate(-343.64 -122.45)" fill="#bca449"/>
        </g>
      </g>
      <path id="Tracé_11" data-name="Tracé 11" d="M425.024,236.094l.015-.006.479-.235" transform="translate(-398.046 -198.261)" fill="#bca449"/>
      <line id="Ligne_1" data-name="Ligne 1" x1="0.639" y2="0.218" transform="translate(30.522 37.502)" fill="#bca449"/>
      <line id="Ligne_2" data-name="Ligne 2" x1="0.052" y2="0.034" transform="translate(27.24 38.773)" fill="#bca449"/>
      <line id="Ligne_3" data-name="Ligne 3" x1="0.311" y2="0.135" transform="translate(29.325 37.583)" fill="#bca449"/>
      <line id="Ligne_4" data-name="Ligne 4" x1="0.285" y2="0.126" transform="translate(29.119 37.589)" fill="#bca449"/>
    </g>
    <circle id="Ellipse_1" data-name="Ellipse 1" cx="48.792" cy="48.792" r="48.792" transform="translate(142.191 82.043)" fill="none" stroke="#969621" stroke-miterlimit="10" stroke-width="5.635"/>
    <g id="Groupe_13" data-name="Groupe 13" transform="translate(76.957 194.851)">
      <path id="Tracé_12" data-name="Tracé 12" d="M76.957,425.915h4.315v17.259H92.778v4.315H76.957Z" transform="translate(-76.957 -424.736)" fill="#969621"/>
      <path id="Tracé_13" data-name="Tracé 13" d="M158.9,447.489A10.787,10.787,0,1,1,169.689,436.7,10.791,10.791,0,0,1,158.9,447.489ZM152.43,436.7a6.472,6.472,0,1,0,6.472-6.472A6.482,6.482,0,0,0,152.43,436.7Z" transform="translate(-124.527 -424.736)" fill="#969621"/>
      <path id="Tracé_14" data-name="Tracé 14" d="M245.68,425.915a10.788,10.788,0,0,1,8.6,4.286l.432.575-3.423,2.618-.431-.575a6.416,6.416,0,0,0-5.178-2.589,6.472,6.472,0,1,0,0,12.944,6.415,6.415,0,0,0,5.178-2.589l.431-.575,3.423,2.617-.432.575a10.784,10.784,0,1,1-8.6-17.287Z" transform="translate(-182.54 -424.736)" fill="#969621"/>
      <path id="Tracé_15" data-name="Tracé 15" d="M329.149,441.514h-11.1l-1.956,3.6h-4.919L323.6,422.357l12.456,22.753h-4.919ZM326.79,437.2l-3.193-5.868L320.4,437.2Z" transform="translate(-233.533 -422.357)" fill="#969621"/>
      <path id="Tracé_16" data-name="Tracé 16" d="M408.867,447.489h-1.295l-11.793-21.574H400.7l7.537,13.778,7.507-13.778h4.919Z" transform="translate(-290.095 -424.736)" fill="#969621"/>
      <path id="Tracé_17" data-name="Tracé 17" d="M499.454,447.489h-4.315V425.915h4.315Z" transform="translate(-356.519 -424.736)" fill="#969621"/>
      <path id="Tracé_18" data-name="Tracé 18" d="M558.812,443.174a10.793,10.793,0,1,1,.374-12.4l-3.424,2.646a6.466,6.466,0,1,0-1.266,8.112V440.3h-5.034v-4.315h9.349Z" transform="translate(-386.106 -424.736)" fill="#969621"/>
      <path id="Tracé_19" data-name="Tracé 19" d="M632.161,425.915h1.151l13.232,12.6v-12.6h4.315v21.574h-1.179l-13.2-12.6v12.6h-4.315Z" transform="translate(-448.121 -424.736)" fill="#969621"/>
      <path id="Tracé_20" data-name="Tracé 20" d="M726.749,425.915H742.57v4.315H731.064V436.7h8.63v4.315h-8.63v2.157H742.57v4.315H726.749Z" transform="translate(-511.354 -424.736)" fill="#969621"/>
    </g>
  </g>
</svg>
