<svg xmlns="http://www.w3.org/2000/svg" width="161.745" height="161.745" viewBox="0 0 161.745 161.745">
  <g id="Calque_1" data-name="Calque 1" transform="translate(-270.934 -147.627)">
    <g id="Groupe_31" data-name="Groupe 31" transform="translate(273.751 150.444)">
      <g id="Groupe_30" data-name="Groupe 30" transform="translate(37.061 21.427)">
        <g id="Groupe_29" data-name="Groupe 29">
          <g id="Groupe_19" data-name="Groupe 19" transform="translate(59.734 78.606)">
            <rect id="Rectangle_23" data-name="Rectangle 23" width="0.003" height="0.003" fill="#bca449"/>
          </g>
          <g id="Groupe_21" data-name="Groupe 21" transform="translate(17.9 31.324)">
            <g id="Groupe_20" data-name="Groupe 20">
              <path id="Tracé_30" data-name="Tracé 30" d="M377.418,249.924H377.4l-.008,0Z" transform="translate(-377.395 -249.921)" fill="#bca449"/>
            </g>
          </g>
          <path id="Tracé_31" data-name="Tracé 31" d="M377.418,249.924H377.4l-.008,0Z" transform="translate(-359.495 -218.597)" fill="#bca449"/>
          <path id="Tracé_32" data-name="Tracé 32" d="M415.6,203.143l-.005.005-.01.008a1.147,1.147,0,0,0-.5.753,4.334,4.334,0,0,0-.029.5l-.015.513-.065,2.048-.064-2.048-.015-.513a4.45,4.45,0,0,1,0-.526,1.379,1.379,0,0,1,.549-.944.13.13,0,0,1,.18.026A.128.128,0,0,1,415.6,203.143Z" transform="translate(-377.105 -196.516)" fill="#bca449"/>
          <path id="Tracé_33" data-name="Tracé 33" d="M419.314,196.63c.113.077.232.147.351.222-.124-.065-.248-.126-.369-.2l-.17-.124-.085-.065-.073-.077a1.027,1.027,0,0,1-.327-.779,1.656,1.656,0,0,1,.268-.823,3.147,3.147,0,0,1,.55-.668.129.129,0,1,1,.175.19s0,0-.007.005l-.005.005a2.98,2.98,0,0,0-.549.573,1.5,1.5,0,0,0-.3.722.937.937,0,0,0,.248.732l.062.08.077.067Z" transform="translate(-378.869 -192.37)" fill="#bca449"/>
          <path id="Tracé_34" data-name="Tracé 34" d="M419.279,213.606l-.01.011-1.664,1.468,1.483-1.651a.129.129,0,1,1,.191.173Z" transform="translate(-378.382 -201.438)" fill="#bca449"/>
          <g id="Groupe_27" data-name="Groupe 27" transform="translate(59.733 78.606)">
            <g id="Groupe_22" data-name="Groupe 22">
              <rect id="Rectangle_24" data-name="Rectangle 24" width="0.003" height="0.003" transform="translate(0)" fill="#bca449"/>
              <path id="Tracé_35" data-name="Tracé 35" d="M456.283,339.084v0h0v0Z" transform="translate(-456.283 -339.084)" fill="#bca449"/>
              <path id="Tracé_36" data-name="Tracé 36" d="M463.224,348.937l-.015.041-.1-.165Z" transform="translate(-459.489 -343.654)" fill="#bca449"/>
            </g>
            <g id="Groupe_23" data-name="Groupe 23" transform="translate(0)">
              <rect id="Rectangle_25" data-name="Rectangle 25" width="0.003" height="0.003" fill="#bca449"/>
              <rect id="Rectangle_26" data-name="Rectangle 26" width="0.003" height="0.003" fill="#bca449"/>
            </g>
            <g id="Groupe_24" data-name="Groupe 24" transform="translate(3.619 5.159)">
              <path id="Tracé_37" data-name="Tracé 37" d="M463.224,348.937l-.015.041-.1-.165Z" transform="translate(-463.108 -348.813)" fill="#bca449"/>
            </g>
            <g id="Groupe_25" data-name="Groupe 25" transform="translate(0)">
              <rect id="Rectangle_27" data-name="Rectangle 27" width="0.003" height="0.003" fill="#bca449"/>
            </g>
            <g id="Groupe_26" data-name="Groupe 26" transform="translate(0)">
              <rect id="Rectangle_28" data-name="Rectangle 28" width="0.003" height="0.003" fill="#bca449"/>
              <rect id="Rectangle_29" data-name="Rectangle 29" width="0.003" height="0.003" fill="#bca449"/>
            </g>
          </g>
          <g id="Groupe_28" data-name="Groupe 28">
            <path id="Tracé_38" data-name="Tracé 38" d="M424.826,276.208c-.214-.18-.418-.35-.472-.413a1.462,1.462,0,0,1,.129-.271l.235-.387-.421-.173a4.608,4.608,0,0,1-.519-.25,3.5,3.5,0,0,1,.219-.32l.261-.335-.359-.227a3.389,3.389,0,0,1-.681-.547.518.518,0,0,1-.072-.22l.031-.033a2.374,2.374,0,0,0,.364-.534l.15-.307-1.32-.862-.5-.766a2.913,2.913,0,0,1,.485-.8l.423-.282-.384-.332c-.235-.206-.452-.374-.643-.524-.387-.3-.619-.49-.578-.583l.158-.364-.366-.15c-.351-.145-.71-.3-.981-.426a2.486,2.486,0,0,0,.588-1.429v-.232l-.206-.111c-.537-.281-.98-.544-1.212-.684l-.033-.916-.372,0a9.757,9.757,0,0,1-1.238-.077,2.636,2.636,0,0,1,.158-.4l.292-.593-.661.036a7.27,7.27,0,0,1-2.1-.17c.5-1.079.864-1.888.864-1.888l.17-.379-.389-.145c-.008,0-.679-.25-1.4-.5a.966.966,0,0,0-.073-.72.45.45,0,0,0-.307-.2l-.062-.008-1.2.235a.96.96,0,0,1-.047-.25.4.4,0,0,0-.057-.5c-.24-.235-.5-.044-.642.057a3.833,3.833,0,0,1-1.589.751.565.565,0,0,1-.2-.477l.227-.968-1.806,1.233.155-.98-.936,1.244a4.291,4.291,0,0,1-.849.88.433.433,0,0,1,.005-.085l.227-1.432-.91,1.13a5.136,5.136,0,0,0-1.014,1.581,1.815,1.815,0,0,0-.57,1c-.036.211-.069.559-.1.929a10.512,10.512,0,0,1-.163,1.3,2.418,2.418,0,0,0-.194.885c-.051.382-.132.965-.255,1.555-2.33-2.453-5.2-5.3-6.431-5.817-.583-.245-1.431-.617-2.344-1.022a40.112,40.112,0,0,1-.292-4.873q0-1.888.168-3.694c.758-.252,1.246-.407,1.264-.415l.183-.059,2.312-3.8h.632a3,3,0,0,0,0-6.006h-.186a2.022,2.022,0,0,0,.72-1.507,1.975,1.975,0,0,0-.627-1.411,3.012,3.012,0,0,0-1.4-.762,2.054,2.054,0,0,0,.859-1.612,1.931,1.931,0,0,0-.511-1.287,2.985,2.985,0,0,0-1.6-.9l3.9-9.686a.179.179,0,0,0,.041-.1l1.075-2.678.511-1.1,0,0a.2.2,0,0,0,.072-.152v0l1.318-2.83a.322.322,0,0,0,.036-.085,4.9,4.9,0,0,0,.191-1.346c0-2.691-2.185-4.986-5.317-5.592l-5.9-2.025a.857.857,0,0,0,.044-.271v-.482a.869.869,0,0,0-.867-.867h-.892l.97-.936a.861.861,0,0,0,.263-.624.873.873,0,0,0-.266-.624l-.74-.715h.81a1.352,1.352,0,0,0,1.349-1.349v-4.811a1.352,1.352,0,0,0-1.349-1.349h-1.5a2.563,2.563,0,0,0,.91-1.891c0-1.816-2.167-3.24-4.932-3.243s-4.932,1.426-4.932,3.243a2.561,2.561,0,0,0,.908,1.891h-1.5a1.35,1.35,0,0,0-1.349,1.349v4.811a1.35,1.35,0,0,0,1.349,1.349h.808l-.746.72a.875.875,0,0,0,.005,1.246l.97.934h-.893a.869.869,0,0,0-.867.867v.482a.858.858,0,0,0,.044.271l-4.246,1.458c-.033-.139-.054-.225-.059-.243l-.121-.467-.671.343a2.039,2.039,0,0,1-.8-.111,6.4,6.4,0,0,0-.8-2.962l-.152-.25-.281.077a6.675,6.675,0,0,1-.684.152,9.151,9.151,0,0,1-.3-1.215l-.036-.2-.882-.418-1.264-1.527-.2.7a4.915,4.915,0,0,1-.7,1.509c-.472.506-2.778,4.117-2.688,5.634a4.319,4.319,0,0,1-1.274,3.247.176.176,0,0,1-.077-.036,2.685,2.685,0,0,1-.5-1.5l.354-1.583-.026-.093a30.1,30.1,0,0,0-1.367-4.086,19.319,19.319,0,0,0-2.6-2.659l-.353-.31-.238.408c-.036.067-.784,1.364-1.38,2.585a3.964,3.964,0,0,0-1.852-1.607l-.42-.152-.093.436s-.011.052-.029.132a6.119,6.119,0,0,0-.758-.629l-.1-.067-.119,0a9.374,9.374,0,0,0-1.744.2,3.345,3.345,0,0,0-1.86-.781l-.046,0-.047.01c-.2.041-.475.245-.66.967a.43.43,0,0,1-.021.075,3.343,3.343,0,0,0-1.883-.836l-.23-.039-.142.184a4.937,4.937,0,0,0-.568,2.249l-.591.126.008.32c.008.343.072,1.166.5,1.442a.925.925,0,0,1,.2.276l-1.442.041.787.655a4.389,4.389,0,0,1,.67,1.752c.013.057.029.111.041.163a4.355,4.355,0,0,0-.748.653l-.2.211.872,1.489c-.248.374-.4.756-.106,1a4.706,4.706,0,0,1,.483.531,3.734,3.734,0,0,0-1.306,1.3l-.137.23.163.209a4.152,4.152,0,0,0,2.017,1.21,3.13,3.13,0,0,1,.606.238l-.537.5.436.266a4.676,4.676,0,0,0,2.518.712,3.167,3.167,0,0,1,2.141.565,2.863,2.863,0,0,1-.712.949l-1.847.286-3.9,1.011-.7,1.334-.867.294-.059.054a6.5,6.5,0,0,0-.768.877,7.142,7.142,0,0,0-2.028,2.822l-.281.754.766-.25a4.722,4.722,0,0,1,.588-.124l.026-.005a1.681,1.681,0,0,1,1.31.085.8.8,0,0,1,.291.364l-1.07,1.269,1.375.413,1.78-.284.137,1.5,2.672-.325c-.118.17-.317.441-.624.838l-.286.374.423.209c2.182,1.076,5.291-1.318,5.83-1.756l.289-.062a1.034,1.034,0,0,1-.005.248,19.033,19.033,0,0,0-1.623,2.6l-.268.493.555.077c.395.054,1.5.224,1.888.34a6.06,6.06,0,0,0,1.757.034l.374.732.926-.444.043-.043a3.565,3.565,0,0,1,.405-.34c.028.139.057.312.083.516l.771-.026a.283.283,0,0,1-.01.054,9.589,9.589,0,0,1,1.5-1.488l.013,0c.018.336.065.852.181,1.6l.077.5.462-.2c2.585-1.14,3.222-2.623,3.369-3.421l1.13.359-.232-3.5,3.859,1.777,3.281,2.814a2.76,2.76,0,0,0-1.021.717,1.915,1.915,0,0,0-.511,1.287,2.053,2.053,0,0,0,.859,1.612,3.01,3.01,0,0,0-1.4.759,1.992,1.992,0,0,0-.627,1.413,2.023,2.023,0,0,0,.72,1.507h-.186a3,3,0,0,0,0,6.006h3.741a36.107,36.107,0,0,1,.758,5.771c-.057.008-.113.018-.17.028a2.412,2.412,0,0,0-1.992,2.41l.005.281,2.085,1.29.093-.013c-.366,8.467-3.3,15.367-7.11,16.419-.005,0-.013,0-.018.005a.349.349,0,0,0-.142.072.062.062,0,0,0-.021.018.308.308,0,0,0-.065.08.151.151,0,0,0-.023.044.009.009,0,0,0,0,.005.115.115,0,0,0-.015.047.122.122,0,0,0-.01.033.191.191,0,0,0-.008.054v.021a.334.334,0,0,0,.008.072.226.226,0,0,0,.015.057.129.129,0,0,0,.01.026.186.186,0,0,0,.026.049.275.275,0,0,0,.059.075,4.932,4.932,0,0,1,1.23,2.67v.005a6.328,6.328,0,0,1,.072.952,4.947,4.947,0,0,1-1.77,4.029q-.208.116-.379.225a7.357,7.357,0,0,0-1.586,11.143l-1.672,1.4,0,0-.055.039a.377.377,0,0,0-.144.3V300a.387.387,0,0,0,.34.384c.126.015,12.648,1.511,19.768,1.514s19.631-1.5,19.758-1.514a.388.388,0,0,0,.34-.384v-5.3a.376.376,0,0,0-.049-.18.383.383,0,0,0-.108-.15l-1.7-1.424a7.279,7.279,0,0,0,1.6-2.956l.163.413.407-.655a4.489,4.489,0,0,1,.666-.833,1,1,0,0,1,.248.3.6.6,0,0,0,.333.325.729.729,0,0,0,.343.041,2.445,2.445,0,0,1,.449.673l.163.838.523-.673c.16-.206.336-.276.4-.26s.137.129.188.356.168.754.6.774a.507.507,0,0,0,.3-.085,2.662,2.662,0,0,1,.467.691,1.316,1.316,0,0,0,.9.645c.449.155.836.286.947.872l.307,1.576.446-1.543a15.734,15.734,0,0,1,.671-1.947l.036-.08v-.085a2.508,2.508,0,0,1,.106-.823c.238-.178.227-.49.22-.789-.018-.647.069-.653.25-.66l.33-.016.036-.327c.021-.194.029-.4.036-.625.013-.4.036-1.06.2-1.189.033-.029.116-.013.16,0l.359.08.1-.354a4.475,4.475,0,0,0,.16-1.563l.583-.219-.165-.376a.626.626,0,0,1-.044-.441c.044-.077.194-.1.276-.113.227-.023.415-.047.573-.065.234-.028.454-.051.541-.051a.394.394,0,0,0,.439.051c.271-.139.225-.4.183-.663a2.807,2.807,0,0,1,0-1.364l.073-.181-.1-.165a3.262,3.262,0,0,0-.841-.96,1.116,1.116,0,0,1,.013-.232l.3-.258-.33-.294c-.686-.609-1.628-1.408-1.9-1.635-.036-.1-.07-.2-.1-.281a12.356,12.356,0,0,1,3.642.563l.077.01a4.744,4.744,0,0,0,2.064-.286c1.063-.519,2.28-1.083,2.51-1.143l.924-.075Zm-27.584-14.293c1.081.454,4.055,3.431,6.514,6.036a2.026,2.026,0,0,1-.552.905,13.776,13.776,0,0,1-5.092-3.591l-.062-.051c-.16-.1-.3-.194-.426-.268l-1.736-1.551v0c-.072-.325-.142-.653-.206-.988l.428.191,1.236.552,4.008,3.457-3.794-3.738-.013-.015-.028-.013-1.948-1.027c-.036-.219-.075-.443-.108-.668C396.153,261.447,396.78,261.721,397.242,261.915Zm6.134,7.543v0h0v0Zm-8.048-5.183-.005,0-.338-.129-.134.369a1.623,1.623,0,0,0-.083.328c-.3.065-.547.121-.758.17-.072-.41-.144-.823-.212-1.233q.685-.062,1.37-.155C395.22,263.842,395.271,264.061,395.328,264.275ZM391.2,253.1q-.011.836.018,1.669-.677.027-1.354.033c0-.209,0-.415,0-.624,0-.32.008-.64.019-.959l.358-.132C390.566,253.092,390.883,253.1,391.2,253.1Zm-.392-.22c.132-.049.263-.1.395-.144,0,.044,0,.085,0,.129C391.074,252.87,390.942,252.875,390.811,252.878Zm.418,2.121c.018.462.044.921.075,1.38q-.708.031-1.416.039-.02-.719-.021-1.442Q390.548,255,391.229,255Zm.09,1.617c.026.343.057.689.088,1.032.015.186.033.371.051.559-.493.021-.983.037-1.475.041-.008-.142-.019-.286-.029-.428q-.043-.616-.059-1.231Q390.607,256.617,391.319,256.616Zm1.571-.015c.026.508.059,1.014.1,1.522-.467.033-.939.059-1.408.08-.019-.188-.034-.377-.047-.565-.029-.34-.051-.678-.072-1.019C391.941,256.619,392.415,256.613,392.89,256.6Zm-1.442-.23c-.026-.457-.047-.913-.057-1.37.482,0,.965-.005,1.445-.015,0,.436.018.869.039,1.305Q392.163,256.345,391.448,256.371Zm1.416-3.6c-.49.036-.98.062-1.473.08,0-.062,0-.127,0-.189.511-.183,1.017-.358,1.5-.526C392.885,252.352,392.875,252.563,392.864,252.775Zm-.013.307c-.005.126-.008.252-.011.379-.01.4-.013.812-.007,1.218-.483.033-.965.062-1.45.08q-.016-.832,0-1.659C391.873,253.1,392.364,253.095,392.851,253.082Zm-1.37,5.368c.059.573.132,1.143.212,1.716-.5.039-1,.067-1.494.08-.09-.6-.152-1.212-.2-1.821C390.494,258.44,390.986,258.447,391.482,258.45Zm.121,0c.47,0,.942-.005,1.414-.021.044.531.1,1.063.157,1.594-.459.057-.921.1-1.382.137C391.719,259.59,391.654,259.02,391.6,258.45Zm1.7,1.561q-.081-.79-.14-1.584.6-.016,1.2-.047c.034.405.073.8.116,1.2l.031.263Q393.906,259.937,393.3,260.011Zm1.256.212c.023.188.049.371.075.555.039.27.083.539.127.8-.418.07-.838.129-1.259.183-.062-.475-.119-.95-.165-1.426Q393.948,260.292,394.559,260.222Zm-.314-4.042c-.4.039-.8.072-1.2.1-.015-.431-.026-.864-.026-1.3.405-.013.81-.026,1.213-.049v.134C394.229,255.442,394.234,255.811,394.244,256.18Zm.013.371c.015.493.044.978.08,1.46q-.6.058-1.2.1c-.036-.5-.065-1.009-.085-1.514C393.455,256.587,393.855,256.572,394.257,256.551Zm.041-3.892c-.411.039-.82.075-1.233.1.013-.23.025-.461.039-.691.451-.155.877-.3,1.266-.431C394.343,251.978,394.317,252.316,394.3,252.659Zm-.018.371c-.029.506-.044,1.019-.047,1.535-.407.039-.812.072-1.22.1,0-.4.008-.8.021-1.2q0-.193.015-.387C393.46,253.069,393.87,253.053,394.281,253.03Zm-1.071,7.319q.077.716.178,1.429-.674.081-1.354.139c-.075-.5-.145-1-.209-1.5Q392.518,260.4,393.21,260.349Zm.222,1.741c.07.461.142.923.22,1.382q-.666.089-1.336.152l-.116-.619c-.044-.276-.085-.554-.126-.83C392.526,262.157,392.98,262.129,393.432,262.09Zm.274,1.695c.072.415.147.83.224,1.243-.655.155-.9.232-.916.235l-.374.116-.276-1.491C392.813,263.862,393.259,263.828,393.705,263.785Zm1.38-.532c-.444.08-.89.147-1.336.207-.075-.459-.142-.918-.206-1.378.428-.036.856-.077,1.282-.129.036.2.075.395.113.591C394.982,262.784,395.031,263.019,395.086,263.253Zm6.624-19.161a2.182,2.182,0,0,1-.047.454l-1.078.01a3.451,3.451,0,0,0,.005-.921c-.011-.073-.021-.147-.037-.22l1.058.013A2.254,2.254,0,0,1,401.71,244.092Zm-.253-1.047-.981.01q-.069-.259-.162-.511a6.07,6.07,0,0,0-.276-.624A2.162,2.162,0,0,1,401.457,243.045Zm-2.023.361.975.01c.021.077.039.16.054.24a3.429,3.429,0,0,1,.047.9l-1.262.013a1.933,1.933,0,0,0,.186-.642A2.214,2.214,0,0,0,399.434,243.406Zm.127-1.543c.059,0,.116,0,.172.007a5.478,5.478,0,0,1,.4.746,4,4,0,0,1,.168.441l-.942.008a2.9,2.9,0,0,0-.371-.772,3.484,3.484,0,0,0-.343-.431Zm-.343,1.2-1.143.011a2.9,2.9,0,0,0-.279-.524,5.564,5.564,0,0,0-.539-.691h1.029a3.109,3.109,0,0,1,.545.544A2.675,2.675,0,0,1,399.218,243.068Zm-.026-3.928a.1.1,0,0,0,.028,0,1.021,1.021,0,0,1,.1.446,1.061,1.061,0,0,1-.051.323l-1.429.015a1.989,1.989,0,0,0-.08-.758c-.005-.013-.007-.026-.013-.039l1.439.015Zm-.266-.418a.29.29,0,0,1,.031.033l-1.349.015a3.27,3.27,0,0,0-.222-.389,3.21,3.21,0,0,0-.232-.3h.018A2.541,2.541,0,0,1,398.926,238.721Zm-3.16-.645h1.071a3.349,3.349,0,0,1,.395.418,2.924,2.924,0,0,1,.191.276l-1.137.013c-.029-.046-.059-.1-.091-.142A5.933,5.933,0,0,0,395.766,238.076Zm.379.709-1.192.013a1.36,1.36,0,0,0-.325-.632.871.871,0,0,0-.083-.09h.937a6.193,6.193,0,0,1,.609.64Zm1.806-3.511a.131.131,0,0,0,.054-.011,1.079,1.079,0,0,1,.145.534,1.109,1.109,0,0,1-.021.206l-2.035.023a1.928,1.928,0,0,0-.088-.591c-.018-.062-.041-.124-.064-.186l2.007.023Zm-3.2.25a2.385,2.385,0,0,0-.126-.286l1.156.013c.039.075.072.15.1.227a1.915,1.915,0,0,1,.126.549l-1.179.015A1.147,1.147,0,0,0,394.752,235.525Zm-.794-1.233h1.052a3.282,3.282,0,0,1,.467.48c.036.047.069.093.106.142l-1.137.013s0-.005-.005-.008A5.7,5.7,0,0,0,393.958,234.292Zm.325.637-1.115.013a1.506,1.506,0,0,0-.294-.5c-.044-.051-.091-.1-.137-.152h.923A5.563,5.563,0,0,1,394.283,234.929Zm3.42-.039-1.919.021c-.047-.088-.1-.17-.152-.253a3.65,3.65,0,0,0-.281-.366H396a2.441,2.441,0,0,1,.274.015h.015A2.453,2.453,0,0,1,397.7,234.89ZM397.43,230q-.5.051-1,.085l.359-1.674q.658-.035,1.316-.08Zm.225-18.2a8.738,8.738,0,0,1,.846.957c.121.162.238.33.343.505-.462-.013-.926-.025-1.391-.033a8.981,8.981,0,0,0-1.037-1.111c-.139-.127-.282-.253-.428-.372C396.543,211.761,397.1,211.779,397.655,211.8Zm-1.986-.32a19.29,19.29,0,0,0-1.844-1.287c.66.02,1.323.046,1.984.08q.262.186.518.379c.348.268.689.547,1.011.844C396.78,211.491,396.226,211.486,395.668,211.483Zm1.671,14.358.356-1.653c.307-.015.614-.033.921-.051l-.389,1.627C397.93,225.792,397.637,225.818,397.34,225.841Zm.8.284L397.693,228c-.276.029-.555.052-.834.073l.408-1.9Q397.705,226.156,398.142,226.125Zm-.377-2.262.32-1.488c.322-.013.642-.026.962-.041l-.348,1.452C398.39,223.813,398.077,223.839,397.766,223.863Zm.389-1.811.374-1.741c.338-.013.676-.031,1.013-.049l-.413,1.726C398.8,222.01,398.48,222.034,398.155,222.052Zm2.193-5.216-.3,1.282c-.353.025-.71.049-1.063.069l.273-1.29C399.623,216.88,399.986,216.859,400.348,216.836Zm-1.021-.25.219-1.027a2.7,2.7,0,0,0,.039-.328c.366-.021.736-.041,1.1-.067a.708.708,0,0,1,0,.075,11.518,11.518,0,0,1-.238,1.181l-.018.082Q399.875,216.546,399.326,216.585Zm.645,1.865-.077.338-.271,1.135c-.343.025-.684.049-1.027.072l.31-1.437.013-.059C399.269,218.486,399.62,218.468,399.971,218.45Zm-.317,1.806q.468-.023.936-.054-.263.859-.532,1.713c-.278.023-.559.047-.841.065Zm.088-.343.276-1.093.093-.376c.338-.019.678-.037,1.016-.057q-.205.728-.425,1.45Q400.221,219.879,399.741,219.913Zm.451-1.808.318-1.28c.359-.02.714-.043,1.07-.069-.113.423-.229.846-.351,1.269C400.884,218.053,400.538,218.081,400.193,218.1Zm.4-1.617.008-.031a12.054,12.054,0,0,0,.256-1.2c0-.036.007-.07.01-.106.353-.023.707-.046,1.06-.075v.005a3.38,3.38,0,0,1-.113.748c-.043.188-.09.379-.139.567C401.315,216.428,400.954,216.459,400.593,216.487Zm.286-1.677a3.859,3.859,0,0,0-.1-.792,3.3,3.3,0,0,0-.1-.351c.348.018.7.036,1.042.059a4.213,4.213,0,0,1,.2.991C401.573,214.751,401.227,214.782,400.879,214.811Zm-.186.015c-.369.031-.74.062-1.109.091a3.359,3.359,0,0,0-.186-.906,3.928,3.928,0,0,0-.173-.421c.415.021.828.041,1.244.065a3.908,3.908,0,0,1,.124.408A3.623,3.623,0,0,1,400.693,214.826Zm-1.633-1.553a6.179,6.179,0,0,0-.405-.627,9,9,0,0,0-.7-.833q.743.027,1.486.062c.023.026.044.055.067.083a6.3,6.3,0,0,1,.828,1.354C399.909,213.3,399.486,213.283,399.06,213.273Zm-.041.31a4.252,4.252,0,0,1,.217.485,3.212,3.212,0,0,1,.183.859c-.359.029-.72.054-1.081.077a3.914,3.914,0,0,0-.671-1.483C398.116,213.539,398.568,213.56,399.019,213.583Zm-.658,2.4a2.238,2.238,0,0,0,.033-.454c0-.075,0-.152-.005-.227v-.005c.343-.015.686-.031,1.032-.051a2.226,2.226,0,0,1-.031.291l-.217,1.063c-.312.021-.624.041-.936.059C398.281,216.431,398.325,216.206,398.362,215.979Zm.75.923-.263,1.295c-.3.021-.606.036-.91.052l.245-1.3C398.493,216.936,398.8,216.921,399.112,216.9Zm-.325,1.6-.005.029-.3,1.471c-.3.02-.591.039-.887.054l.278-1.468.011-.049C398.186,218.53,398.488,218.52,398.787,218.5Zm-.369,1.811-.356,1.741c-.284.021-.567.036-.854.049l.333-1.754C397.832,220.341,398.124,220.328,398.418,220.315ZM398,222.377l-.3,1.491c-.276.023-.552.041-.831.059l.289-1.52C397.435,222.4,397.716,222.389,398,222.377Zm-.372,1.816-.338,1.653c-.266.025-.531.046-.8.064l.317-1.682C397.079,224.218,397.353,224.206,397.626,224.193Zm-.405,1.989-.387,1.9c-.256.023-.513.043-.769.061l.364-1.914C396.695,226.213,396.958,226.2,397.221,226.182Zm-.457,2.234-.34,1.677c-.245.018-.49.036-.738.051l.322-1.692C396.262,228.441,396.512,228.431,396.764,228.416Zm1.494-.467c-.186.021-.374.039-.563.054l.477-1.88c.284-.018.565-.039.846-.062Zm.919-2.28c-.3.033-.609.062-.913.093l.41-1.627c.385-.023.769-.049,1.151-.077Zm.8-2c-.4.041-.81.08-1.217.113l.366-1.452c.271-.013.542-.026.81-.041-.026.08-.049.157-.075.237.028-.08.054-.158.082-.237.2-.013.4-.026.6-.036Zm1.138-2.824-.41,1.019q-.317.031-.634.054.289-.859.577-1.718c.263-.015.527-.033.792-.051Zm.505-1.089c-.284.028-.57.054-.854.077.158-.483.312-.968.465-1.452.356-.021.709-.044,1.065-.069Zm1.411-3.026-.552,1.186c-.379.039-.756.07-1.135.1.129-.423.255-.844.376-1.269q.666-.043,1.331-.1C403.051,216.673,403.044,216.7,403.036,216.728Zm.15-1.1a3.962,3.962,0,0,1-.052.627c-.436.044-.869.085-1.306.127.047-.17.093-.343.137-.519a3.489,3.489,0,0,0,.134-.776v-.026c.346-.026.689-.051,1.032-.083A3.887,3.887,0,0,1,403.185,215.631Zm-.129-1.024c-.32.031-.64.065-.96.093a4.329,4.329,0,0,0-.162-.96c.276.016.549.034.823.052A4.351,4.351,0,0,1,403.056,214.607Zm-1.85-2.641a5.07,5.07,0,0,1,1.331,1.434c-.242-.01-.485-.023-.728-.031a7.366,7.366,0,0,0-.7-1.408A.576.576,0,0,1,401.207,211.966Zm.382,1.393-1.035-.038a6.212,6.212,0,0,0-.823-1.432l1.086.054A7.345,7.345,0,0,1,401.588,213.358Zm-1.089-1.847c.015.019.029.037.044.057-.364-.013-.725-.023-1.089-.028a8.533,8.533,0,0,0-.6-.66A6.615,6.615,0,0,1,400.5,211.511Zm-3.333-1.161,1.213.416a9.312,9.312,0,0,1,.766.766q-.75-.019-1.5-.028a13.774,13.774,0,0,0-1.182-1.024c-.08-.062-.16-.124-.24-.183Q396.695,210.319,397.167,210.35Zm-1.166-.4c-.087,0-.175,0-.26,0-.077-.057-.155-.111-.232-.165Zm-1.465-.5c.264.157.521.32.777.49-.643-.007-1.285-.013-1.924-.01q-1.192-.716-2.446-1.318h.978a.849.849,0,0,0,.139-.013Zm-3.24-4.837-1.076.025a.307.307,0,0,0-.015-.067.9.9,0,0,0-.271-.41l.008,0-1.122-1.248,1.127.031-.007.015a.387.387,0,0,0,.09.423Zm1.344-3.271-1.029.02.036-1.571.993.018Zm0-1.9-.985.018.015-.621c0-.245.013-.49.018-.735l.952.02Zm-.575-2.683a.576.576,0,0,1,.575.575v.428l-.952.021c0-.1,0-.2-.01-.3a2.3,2.3,0,0,0-.163-.684c-.008-.013-.013-.029-.021-.041Zm-1.375-2.806a1.266,1.266,0,0,1,.008.142,1.514,1.514,0,0,1-.186.71l-.98.036,0-.011a1.126,1.126,0,0,0,.088-.288l.057-.3.005-.3a.043.043,0,0,0,0-.018Zm-.085-.364-.96.031a2.443,2.443,0,0,0-.314-.836c-.044-.072-.093-.145-.145-.214l.629.029A2.235,2.235,0,0,1,390.6,193.588Zm-1.354-1.347-.32.016a3.383,3.383,0,0,0-.271-.274A4.716,4.716,0,0,1,389.25,192.241Zm-7.628,12.666a.1.1,0,0,1-.031-.075.1.1,0,0,1,.026-.067l1.432-1.38a.387.387,0,0,0-.268-.665h-1.767a.575.575,0,0,1-.575-.575v-4.811a.576.576,0,0,1,.575-.575H383.8a.388.388,0,0,0,.165-.738,2.365,2.365,0,0,1-1.586-1.927c0-1.336,1.9-2.466,4.158-2.469a6.544,6.544,0,0,1,1.6.2c.09.062.181.124.266.191.1.08.2.165.3.253l-2.977.139,3.263.152a2.85,2.85,0,0,1,.229.294,2.422,2.422,0,0,1,.341.769l-4.9.147,4.953.15c0,.008,0,.018,0,.026l.013.3-.041.294a1.148,1.148,0,0,1-.072.289l-.005.015-4.13.15,4.886.178a3.359,3.359,0,0,1-1.158.854.312.312,0,0,0-.077.051l-3.3.139,3.163.134a.326.326,0,0,0,.007.111.387.387,0,0,0,.377.3h1.955c.028.044.054.09.08.137a2.1,2.1,0,0,1,.173.611c.01.093.018.186.025.281l-6.818.155,6.831.155c.007.245.007.5.018.74l.015.624-8.459.163,8.466.162.037,1.573-8.5.163,9.542.183v.439a.574.574,0,0,1-.294.5l-3.683.1-.1,0-3.077.082,2.987.08,1.378,1.349,0,.005.005,0a.8.8,0,0,1,.256.338c0,.013.007.023.013.036l-5.776.15,5.812.15a.612.612,0,0,1-.013.1,1.683,1.683,0,0,1-.454.784,1.728,1.728,0,0,0,.518-.768.714.714,0,0,0,.023-.109l1.153.029-1.478,1.424h-6.745Zm-.557,2.353a.092.092,0,0,1,.093-.093H391.92a.1.1,0,0,1,.093.093v.482a.042.042,0,0,1,0,.018.092.092,0,0,1-.09.075H381.158a.088.088,0,0,1-.087-.073.027.027,0,0,1-.005-.021Zm-5.559,3.229.371-.129.369-.126,4.775-1.638a.615.615,0,0,0,.137.013H382l-4.7,2.043a7.379,7.379,0,0,0-1.813.929A6.2,6.2,0,0,0,374.015,213a5.194,5.194,0,0,0-.89,3.9,10.632,10.632,0,0,0,.526,1.963l.645,1.924,1.285,3.849-1.241-3.862-.621-1.932a10.543,10.543,0,0,1-.5-1.956,5.073,5.073,0,0,1,.913-3.8,6.786,6.786,0,0,1,3.235-2.257l.008,0h0l5.247-2.213h1.937L378.914,211l-.779.33-.39.165-.194.083a1.982,1.982,0,0,0-.2.1,4.576,4.576,0,0,0-1.295,1.122,5.723,5.723,0,0,0-1.184,3.163,10.066,10.066,0,0,0,.358,3.366c.137.549.328,1.083.5,1.617l.536,1.6,2.154,6.415-2.092-6.433-.521-1.61c-.173-.536-.356-1.07-.488-1.615a10.044,10.044,0,0,1-.32-3.333,5.578,5.578,0,0,1,1.181-3.067,4.459,4.459,0,0,1,1.256-1.068c.059-.031.121-.064.18-.09l.194-.08.392-.162.782-.322,6.227-2.572h5.11a28.647,28.647,0,0,1,2.613,1.321q-3.738.019-7.46.252,3.943-.123,7.889,0c.021.013.041.023.062.036a20.779,20.779,0,0,1,1.9,1.267q-5.769-.016-11.531.317,5.928-.212,11.861-.059c.214.165.42.343.625.524a8.984,8.984,0,0,1,.934.962q-7.228-.146-14.454.194,7.34-.205,14.678.093a.293.293,0,0,1,.025.034,3.9,3.9,0,0,1,.709,1.47,133.138,133.138,0,0,1-15.56.1,132.373,132.373,0,0,0,15.61.18l0,.013c.008.072.005.142.011.214a2.34,2.34,0,0,1-.029.425c-.036.238-.082.475-.124.712a131.807,131.807,0,0,1-15.2.059,132.127,132.127,0,0,0,15.15.23l-.235,1.3a125.854,125.854,0,0,1-14.562-.046,126.1,126.1,0,0,0,14.508.335l0,.018-.268,1.5a117.861,117.861,0,0,1-13.837-.028,118.074,118.074,0,0,0,13.783.317l-.315,1.757a108.979,108.979,0,0,1-13.174-.093,109.185,109.185,0,0,0,13.12.392l-.273,1.522a101.838,101.838,0,0,1-12.263.088,101.589,101.589,0,0,0,12.209.212l-.3,1.684a92.008,92.008,0,0,1-11.536.152,93.142,93.142,0,0,0,11.479.16l-.343,1.914a84.532,84.532,0,0,1-10.661.109,85.14,85.14,0,0,0,10.6.2l-.3,1.692a74.657,74.657,0,0,1-9.761.031,75.2,75.2,0,0,0,9.7.292l-.325,1.816.346-1.816c.242-.008.485-.015.725-.029.31-.013.617-.028.924-.046l-.72,1.782c-.425.041-.848.077-1.274.109a66.812,66.812,0,0,1-9.06.069,67.016,67.016,0,0,0,10.179.212l-.384.952H377.059l0,0v0l-.621-1.548-.34-.846v0l-.343-.848-.16-.4v0l-.508-1.264v-.011l0,0-.332-.818-2.211-5.5-.163-.4-.423-1.052-1.421-3.044-.325-.7-.162-.348a4.2,4.2,0,0,1-.15-1.1,4.4,4.4,0,0,1,1.272-3.044c.09-.1.188-.191.288-.281a6.338,6.338,0,0,1,2.786-1.432l-.248.186-.65.49a3.534,3.534,0,0,0-.588.586,5.85,5.85,0,0,0-1.331,2.969,5.511,5.511,0,0,0,.062,1.635c.051.266.134.529.209.789l.26.772,1.05,3.077-.988-3.1-.248-.774c-.067-.261-.142-.521-.188-.784a5.554,5.554,0,0,1-.031-1.6,5.682,5.682,0,0,1,1.352-2.858,3.335,3.335,0,0,1,.57-.549l.658-.475.73-.527ZM371.6,222v0l3.016,7.5.025.067c-1.872-.988-3.093-1.623-3.888-2.035,0,0,0,0-.007-.005-.09-.043-.173-.087-.25-.129-.041-.021-.08-.039-.116-.059-.075-.036-.142-.072-.206-.106a.1.1,0,0,1-.029-.013c-.046-.023-.088-.046-.129-.067-.067-.033-.129-.067-.186-.093s-.129-.065-.181-.093c-.188-.093-.288-.142-.348-.165a.2.2,0,0,0-.031-.013.039.039,0,0,0-.021-.008.04.04,0,0,0-.015,0,.074.074,0,0,0-.021-.005.92.92,0,0,0-.212,0l.031-.374.039-.531.343-4.466.005-.015Zm-2.03-1.1.634-2.012,1.043,2.234.165.41Zm-1.259,5.154c-.021-.025-.041-.049-.062-.075-.459-.559-.919-1.119-1.39-1.669l-1.7-1.914-.459-4.45.536-2.685-.727,2.659,0,.011v.018l.132,3.859-.065-.072-2.742-3.088-.132-6.555v-.01l0,0-.8-5.843.557,5.855-.124,5.99-1.331-1.5-2.7-3.075,0-.051-.121-2.964-.049-.754c-.018-.25-.062-.5-.093-.748l-.2-1.5.07,1.507c.007.25.028.5.026.753l-.013.754-.046,2.52-5.964-6.787,5.757,6.934-4.664-.772-2.18-.609,2.133.758.007,0,5.084,1.12.041.007,2.619,3.155,1.287,1.535-2.239-.317-1.434-.2-.717-.1-.71-.147-5.67-1.181,5.621,1.434.7.178.712.137,1.427.266,2.8.529,2.641,3.149.155.183-2.677-.441-.015,0h-.008l-5.683-.054,5.646.371.023,0h-.015l3.229.722,1.555,1.852c.48.588.942,1.187,1.406,1.788.031.044.064.085.1.129l-.157-.029-5.825-1.009-.031-.005H361.8l-1.961.052c-.655.013-1.308.043-1.963.033l-3.926-.013h-.013c-1.089.114-2.175.25-3.255.421-.541.083-1.081.176-1.617.284a15.393,15.393,0,0,0-1.591.4,14.613,14.613,0,0,1,1.6-.333c.537-.087,1.079-.16,1.62-.222.988-.116,1.981-.2,2.969-.268l-.322,2.278-.985,1.922,1.207-1.829.007-.013.008-.026.6-2.342,3.7.158c.652.036,1.308.031,1.963.044l1.672.021-.421,3.4-3.269,3.926,3.522-3.769.028-.029.008-.046.627-3.434,5.391,1.1.472.1a1.3,1.3,0,0,0-.17.441l-.011.049.059.91.184,2.791-1.066-.332.052.577c.005.073.113,1.651-2.484,2.97a8.363,8.363,0,0,1-.106-1.429l.051-.547-1.194.3-.067.057a16.481,16.481,0,0,0-1.233,1.127,2.623,2.623,0,0,0-.09-.284l-.158-.374-.366.175a4.035,4.035,0,0,0-.965.689l-.134.065-.274-.534-.266.031a6.608,6.608,0,0,1-1.716.018,14.324,14.324,0,0,0-1.447-.281,14.4,14.4,0,0,1,1.249-1.976l.119-.083.036-.142a1.741,1.741,0,0,0-.106-1.166l-.134-.266-1.125.242-.072.062c-.028.023-2.706,2.257-4.6,1.87.353-.475.483-.671.487-.681l.083-.126-.152-.941-2.709.327-.139-1.527-2.422.387-.075-.023.547-.647-.021-.165a1.545,1.545,0,0,0-.647-1.047,2.273,2.273,0,0,0-1.814-.237,5.7,5.7,0,0,1,1.494-1.832l.046-.036.034-.049a6,6,0,0,1,.64-.748l1-.34.689-1.305,3.511-.911,2.063-.322.088-.08c.361-.333,1.189-1.171,1.024-1.8-.212-.787-1.986-1.259-2.99-1.135a3.26,3.26,0,0,1-1.558-.361.531.531,0,0,0,.1-.485c-.09-.348-.477-.6-1.254-.836a3.911,3.911,0,0,1-1.432-.756,2.1,2.1,0,0,1,1.107-.862l.431-.069-.121-.421a3.257,3.257,0,0,0-.756-1.063,3.027,3.027,0,0,1,.209-.317l.152-.206-.828-1.414a3.085,3.085,0,0,1,.441-.358l.549.116-.178-.619c-.039-.129-.077-.291-.121-.467a8.277,8.277,0,0,0-.462-1.5l.831-.026-.181-.5a2.645,2.645,0,0,0-.72-1.155,1.306,1.306,0,0,1-.134-.5l.529-.113.011-.3a6.821,6.821,0,0,1,.314-1.909,2.952,2.952,0,0,1,1.006.4,1.027,1.027,0,0,1,.253.23l.049.106.1.059a.69.69,0,0,0,.6.041.943.943,0,0,0,.511-.7,1.629,1.629,0,0,1,.134-.377,2.847,2.847,0,0,1,1.364.7l.144.127.186-.039a11.265,11.265,0,0,1,1.648-.222,3.1,3.1,0,0,1,.892.906l.364,1.161.374-1.158c.055-.168.1-.328.139-.47a3.189,3.189,0,0,1,1.357,1.721l.32.965.4-.931c.415-.955,1.1-2.218,1.463-2.861a15.735,15.735,0,0,1,2.082,2.154,28.342,28.342,0,0,1,1.264,3.805l-.338,1.506.005.057a3.358,3.358,0,0,0,.8,2.111.921.921,0,0,0,.753.18l.073-.015.062-.039a4.919,4.919,0,0,0,1.708-4c-.067-1.133,2.03-4.576,2.484-5.061a3.926,3.926,0,0,0,.642-1.153l.47.567.681.322c.3,1.535.531,1.595.717,1.643a2.226,2.226,0,0,0,.89-.09,5.753,5.753,0,0,1,.555,2.446v.093l.041.082a1.4,1.4,0,0,0,1.213.567l-.48.165a7.491,7.491,0,0,0-2.972,1.264c0-.175,0-.348-.005-.521-.013-.578-.039-1.153-.088-1.728a13.842,13.842,0,0,0-.64-3.387,13.733,13.733,0,0,1,.509,3.395c.028.573.031,1.148.023,1.721-.005.23-.011.459-.021.689a5.318,5.318,0,0,0-2.123,4.161,4.9,4.9,0,0,0,.191,1.346.337.337,0,0,0,.033.083l.549,1.179v0l-1.075,3.008-.011.029,0,.041-.488,4.628Zm4.664,4.04-4.5-2.071,0-.051a.672.672,0,0,1,.593-.439c.312.15,1.8.921,3.4,1.762a0,0,0,0,1,0,0c.9.467,1.831.96,2.623,1.378l.209.519.549,1.367Zm1.958,5.7a1.166,1.166,0,0,1,.32-.779,2.215,2.215,0,0,1,1.223-.66,2.161,2.161,0,0,1,.317-.052h.016a2.439,2.439,0,0,1,.273-.015h.379c-.051.029-.1.059-.152.091a2.659,2.659,0,0,0-.686.6,1.167,1.167,0,0,0-.276.854,1.521,1.521,0,0,0,.382.8,1.516,1.516,0,0,1-.318-.8,1.082,1.082,0,0,1,.31-.766,2.571,2.571,0,0,1,.686-.511,4.588,4.588,0,0,1,.585-.258h14.48a3.237,3.237,0,0,1,.315.24,1.562,1.562,0,0,1,.276.307.812.812,0,0,1,.062.1l-12.444.139,12.534.139,1.3.016a2.213,2.213,0,0,1,.18.312,1.154,1.154,0,0,1,.127.5l-12.893.15,14.087.165a2.423,2.423,0,0,1-.2.74,2.494,2.494,0,0,0,.253-.74l1.914.023A2.308,2.308,0,0,1,396,237.3H377.077C375.893,237.3,374.928,236.629,374.928,235.8Zm-.776,2.923a2.54,2.54,0,0,1,1.754-.645h.957a3.091,3.091,0,0,0-.743.552,1.478,1.478,0,0,0-.314.485,1.083,1.083,0,0,0-.049.573,1.962,1.962,0,0,0,.572.96,1.932,1.932,0,0,1-.508-.97,1.1,1.1,0,0,1,.392-.957,3.253,3.253,0,0,1,.929-.57c.059-.026.121-.049.183-.072H394.3a2.658,2.658,0,0,1,.232.18,1.531,1.531,0,0,1,.276.3.9.9,0,0,1,.119.238l-13.525.147,14.954.162c.031.055.062.109.088.165a.984.984,0,0,1,.106.645,1.028,1.028,0,0,0-.047-.668c-.018-.049-.036-.1-.057-.142l1.153.013a.665.665,0,0,1,.036.082,1.9,1.9,0,0,1,.134.72l-15.008.172,14.98.173a3.059,3.059,0,0,1-.173.555,2.748,2.748,0,0,0,.214-.552l1.28.013a2.36,2.36,0,0,1-1.806.8l-.049,0a.191.191,0,0,1-.039,0H375.906a.145.145,0,0,1-.034,0c-.018,0-.036,0-.054,0-1.138-.029-2.061-.7-2.061-1.5A1.222,1.222,0,0,1,374.152,238.721Zm-.635,7.6a2.23,2.23,0,0,1,0-4.458h1.569c-.1.069-.194.144-.286.222a2.819,2.819,0,0,0-.831,1.115,2.133,2.133,0,0,0-.051,1.37,3.745,3.745,0,0,0,.627,1.21,3.7,3.7,0,0,1-.565-1.225,2.037,2.037,0,0,1,.108-1.305,2.694,2.694,0,0,1,.833-1.014,4.635,4.635,0,0,1,.573-.371h20.224a2.989,2.989,0,0,1,.418.3,1.647,1.647,0,0,1,.279.307.806.806,0,0,1,.15.382,1.185,1.185,0,0,0-.335-.777,2.332,2.332,0,0,0-.2-.216h.918a5.974,5.974,0,0,1,.748.766,2.771,2.771,0,0,1,.3.452l-15.227.155,15.364.157a.832.832,0,0,1,.023.436.861.861,0,0,0,.02-.436l1.151.013a1.946,1.946,0,0,1,.047.518,1.884,1.884,0,0,1-.137.647l-15.215.163,16.445.176a3.219,3.219,0,0,1-.33.869,3.245,3.245,0,0,0,.387-.869l1.035.013a2.161,2.161,0,0,1-1.844,1.393c-.049,0-.1.005-.15.005ZM389.709,249a27.135,27.135,0,0,0-3.382,1.458,23.054,23.054,0,0,1-3.7,1.511c-.039-.521-.083-1.039-.132-1.561-.108-1.1-.232-2.208-.39-3.31h12.741l-1.135.71-.3.188-.356.222a8.711,8.711,0,0,0-1.236.184c-.08.015-.165.036-.253.054-.381.087-.828.206-1.336.371Zm-9.625-1.9h1.762c.18,1.1.328,2.216.451,3.33q.089.793.16,1.592c-.666.2-1.27.335-1.816.441C380.531,250.662,380.356,248.877,380.085,247.095Zm.364,5.4c-.588.109-1.107.178-1.558.24l-.1.015a37.327,37.327,0,0,0-.738-5.657h1.778C380.121,248.879,380.317,250.688,380.448,252.5Zm-2.412,1.414.023-.005c.227-.041.482-.08.768-.118.065-.011.131-.018.2-.029.436-.059.929-.126,1.483-.224.059-.011.121-.021.183-.033.557-.1,1.174-.24,1.852-.436.049-.013.1-.026.144-.041a23.5,23.5,0,0,0,4.1-1.649l.023-.01.766-.377c.834-.4,1.579-.7,2.234-.936l.206-.072c.524-.183.985-.32,1.383-.423l.234-.059a8.628,8.628,0,0,1,1.538-.256h.175l.07-.043.333-.207.6-.374.431-.268.89-.555.157-.1.005,0,.147-.093.23-.018h0l1.269-.1-1.553,2.557c-.145.046-.367.118-.648.211-.232.075-.506.165-.81.266s-.634.211-.991.332l-1.021.348c-.333.116-.673.234-1.021.358-.07.023-.137.046-.206.072-.436.155-.88.315-1.318.475l-.17.065c-.655.242-1.3.487-1.9.728-.046,0-.09,0-.136,0a22.8,22.8,0,0,1,2.257-1.408c.191-.1.385-.2.581-.289l.5-.217c.041-.018.085-.036.127-.051.413-.157.849-.256,1.277-.379.859-.235,1.72-.469,2.585-.686-.872.191-1.739.4-2.605.609-.431.111-.87.2-1.295.346-.155.054-.31.111-.459.173l-.457.2c-.108.049-.217.1-.322.152a23.85,23.85,0,0,0-2.319,1.352c-.093.062-.188.124-.282.188l-.082.054c-.286.194-.573.39-.854.591-.129.059-.25.116-.366.173a13.152,13.152,0,0,1-1.295.534l-7.545.212A1.33,1.33,0,0,1,378.037,253.91Zm11.714.892q-1.765.023-3.529-.069c.075-.036.15-.069.222-.106.841-.4,2.031-.882,3.3-1.356,0,.3,0,.6,0,.905C389.743,254.384,389.745,254.593,389.751,254.8Zm-12.836.222.015-.07,6.552-.328c-.235.07-.469.137-.707.2l-.116.031c-.66.176-1.316.328-1.917.459l-.16.033c-.681.145-1.284.256-1.739.336-.3.049-.529.087-.678.111l-.1-.059Zm1.9,1.715c.441-.075,1.063-.186,1.785-.336q.008.963-.025,1.927c-.031.955-.091,1.912-.191,2.861s-.23,1.9-.416,2.838a19.746,19.746,0,0,1-1.808,5.425,19.767,19.767,0,0,0,1.873-5.412c.2-.939.338-1.888.447-2.84s.18-1.909.224-2.866c.028-.655.044-1.308.046-1.963.6-.127,1.269-.279,1.953-.454.021.616.028,1.23.026,1.847a35.681,35.681,0,0,1-.227,3.671,34.791,34.791,0,0,0,.292-3.671q.019-.937.011-1.873a22.648,22.648,0,0,0,3.4-1.151q1.772.17,3.555.227c.01.485.023.968.046,1.45q-1.884.023-3.769-.082,1.884.189,3.779.25c.018.413.043.826.08,1.238.013.142.026.284.039.423-1.266.021-2.533-.007-3.8-.077,1.266.127,2.541.212,3.815.25.059.611.134,1.22.234,1.824a33.881,33.881,0,0,1-4.22-.126,33.965,33.965,0,0,0,4.251.315c.059.335.126.67.2,1-.072-.333-.134-.668-.186-1,.5.01,1,0,1.5-.011.069.5.147,1,.227,1.5a36.639,36.639,0,0,1-6.155,0,37.141,37.141,0,0,0,6.2.26c.043.278.09.56.137.838l.121.614a39.512,39.512,0,0,1-6.74.075,39.843,39.843,0,0,0,6.792.188l.294,1.5-.116.036.023.031a41.92,41.92,0,0,1-7.215.075,42.1,42.1,0,0,0,7.409.176l.583.761-.384.144-.021.008-.529.2.057.284-.176.087a45.436,45.436,0,0,1-7.238.023,45.836,45.836,0,0,0,6.707.245l-1.168.586.593.364a1.31,1.31,0,0,1,.452.428.835.835,0,0,1-.111.163,49,49,0,0,1-6.792-.16,49.991,49.991,0,0,0,6.609.376,13.524,13.524,0,0,1-1,.97l-.3.263.27.292a2.258,2.258,0,0,1,.22.281,44.756,44.756,0,0,1-6.441-.24,45.079,45.079,0,0,0,6.542.415.281.281,0,0,1,.028.08c-.1.253-.382.818-.487,1.021l-.165.318.3.188c.155.1.333.214.446.291,0,.029-.005.059-.008.093a42.665,42.665,0,0,1-7.5-.127,43.119,43.119,0,0,0,7.479.307c0,.026-.008.051-.011.075-.062.457-.088.684.015.867a.483.483,0,0,0,.4.258h0l.132.22.4.08-.292.023c-.328.029-.65.051-.97.069l-.624.039q-.933.055-1.824.077c-.266.008-.526.013-.786.018-.457.008-.906.013-1.347.013-.459,0-.91-.005-1.349-.013s-.862-.02-1.277-.039h-.007c-.418-.015-.826-.036-1.223-.059s-.792-.049-1.174-.08c-.119-.008-.235-.018-.351-.029-.348-.028-.686-.059-1.017-.093-.575-.059-1.125-.121-1.643-.186-.173-.023-.343-.044-.511-.067a.018.018,0,0,1-.01,0c-.165-.023-.325-.047-.483-.067l-.575-.087c-.186-.029-.366-.059-.545-.091-.087-.015-.173-.028-.258-.043-.157-.029-.312-.054-.459-.083a.024.024,0,0,1-.013,0c-.224-.041-.441-.082-.647-.124-.284-.057-.549-.113-.8-.168l-.18-.039c-.405-.091-.753-.176-1.045-.25C375.808,271.6,378.488,264.83,378.813,256.74ZM372,274.338l.1.023c.17.044.356.09.56.137l.033.008c.1.023.209.049.32.075l.394.085c.114.026.23.049.348.075a.351.351,0,0,1,.052.011c.139.028.281.057.428.085l.273.054.428,1.207-.176-1.161q.554.1,1.182.2c.087.016.178.029.271.041.271.041.555.083.848.124q.732.1,1.54.194l.366.039c.328.036.666.067,1.014.1.173.016.348.031.523.044.145.013.292.023.439.033l.438.031.374.023c.377.023.764.043,1.158.059.209.011.423.018.637.026l.377.011c.08,0,.162,0,.245,0q.375.012.758.015c.286,0,.578.005.872.005s.583,0,.877-.005c.245,0,.49-.007.74-.015.808-.018,1.641-.049,2.5-.1.16-.008.32-.019.48-.029s.325-.021.49-.033l.333-.023.655-.054c.039,0,.075-.005.111-.011.118-.01.237-.018.356-.031l-.142.15c-.681.717-.955,1.021-.887,1.367a.467.467,0,0,0,.186.3c-.531.047-1.05.083-1.563.113-.3.018-.588.034-.877.049-.384.018-.761.033-1.132.044-.465.015-.921.025-1.367.031-1.713.023-3.3-.023-4.77-.111-.292-.018-.581-.039-.862-.059s-.562-.044-.833-.067c-.2-.015-.392-.033-.583-.054-.284-.025-.56-.057-.828-.085-.165-.018-.33-.039-.49-.059-.139-.015-.279-.033-.415-.052s-.274-.033-.408-.054-.266-.033-.394-.054c-.271-.039-.534-.077-.787-.119-.111-.018-.219-.033-.328-.054s-.234-.036-.348-.059c-.457-.077-.882-.157-1.275-.237-.2-.039-.384-.077-.562-.116-.361-.077-.689-.152-.981-.224A6.138,6.138,0,0,0,372,274.338Zm-3.023,19.079,0,0c.33.057.676.111,1.039.17.121.018.245.039.371.057.253.039.513.077.782.113s.542.075.826.111l.242.031c.07.011.139.018.209.026l-.557.833.8-.8c.356.041.72.085,1.1.127.26.028.526.054.8.082.057.005.113.011.173.018.278.026.562.055.851.08l.162.015c.346.031.7.059,1.061.088.18.015.361.028.544.041l.782.054c.266.018.534.033.8.049l.119.008c.555.031,1.125.059,1.71.082.155.008.314.013.472.018.475.019.962.031,1.455.044.431.011.874.018,1.318.023h.039q.674.008,1.362.008h.013c.841,0,1.708-.008,2.593-.029h.023c.407-.01.823-.021,1.244-.033l.16-.005c.439-.015.882-.031,1.331-.051l.565-.026c.526-.026,1.06-.057,1.6-.087l.712-.047c.591-.041,1.184-.085,1.788-.132q1.207-.1,2.454-.222c.413-.041.833-.085,1.254-.132.124-.016.245-.029.369-.041q.809-.093,1.628-.2l1.027,1.179-.335.044a.291.291,0,0,1-.047.005c-.235.033-.469.061-.7.09-.467.062-.931.116-1.393.168q-.6.07-1.2.132c-.3.031-.593.062-.887.09-.565.057-1.122.109-1.674.155-.312.026-.622.052-.929.075-.325.026-.647.049-.967.073-.962.069-1.9.124-2.822.168-.255.013-.508.023-.758.033-.216.01-.433.018-.65.026-.284.01-.562.021-.841.028-.157.005-.312.008-.467.013-.087,0-.176.005-.263.005q-.36.012-.712.015c-.48.008-.952.016-1.419.016-.065,0-.129,0-.194,0h-.5c-.57,0-1.133,0-1.679-.01q-.526-.008-1.037-.021c-.527-.013-1.043-.028-1.545-.046-.268-.011-.531-.021-.795-.034-.132,0-.26-.01-.389-.018-.258-.01-.513-.025-.766-.039l-.487-.028c-.364-.021-.722-.044-1.073-.07-.271-.018-.537-.039-.8-.059l-.846-.07c-.154-.013-.306-.025-.457-.041-.286-.025-.567-.051-.84-.08-.3-.029-.586-.059-.867-.091a.37.37,0,0,0-.051,0c-.124-.016-.248-.029-.369-.041-.366-.041-.72-.085-1.06-.129-.026,0-.049-.007-.075-.01-.134-.018-.268-.033-.4-.051l-.511-.07-.49-.069c-1.316-.194-2.394-.382-3.209-.542Zm36.893,6.24c-2.059.24-12.918,1.465-19.334,1.468s-17.268-1.228-19.324-1.468v-4.476c.973.2,2.386.451,4.2.7l.121,3.434.121-3.4c1.372.186,2.966.364,4.765.511.108.007.216.015.328.025l.611.047c.353.025.717.049,1.086.072h.007c.348.023.7.044,1.065.062.666.033,1.354.064,2.061.088.137.005.274.011.413.013.057,0,.116,0,.173,0,.131.005.263.008.394.011q1.4.034,2.894.036c.4,0,.795,0,1.2-.005.278,0,.56-.008.843-.013l.163,0c.338-.005.681-.013,1.027-.023q.758-.019,1.54-.051c.314-.013.635-.026.954-.041.041,0,.085,0,.126-.005.364-.018.728-.039,1.1-.059a1.418,1.418,0,0,0,.15-.007q1.779-.105,3.658-.266c.518-.044,1.039-.093,1.568-.145.137-.013.276-.025.413-.041.668-.069,1.346-.144,2.03-.224.227-.025.459-.051.689-.082q.658-.082,1.326-.17l.049,1.388a118.346,118.346,0,0,1-22.144,1.045,118.268,118.268,0,0,0,22.157-.717l.047,1.308a98.758,98.758,0,0,1-17.844,1.1,99.131,99.131,0,0,0,17.854-.784q1.764-.236,3.516-.541Zm0-1.6q-1.745.336-3.506.6l.049-1.316q1.729-.22,3.456-.5Zm0-1.595q-1.717.3-3.444.547l.049-1.4c.41-.054.823-.111,1.238-.173.709-.1,1.429-.214,2.156-.33Zm-.534-2.053,0,0q-1.567.247-3.083.449l-.836-1.2c.3-.036.591-.075.887-.113.377-.052.756-.1,1.138-.158.194-.029.382-.051.575-.08Zm.189-4.251a47.666,47.666,0,0,1-14.753,1.7,47.8,47.8,0,0,0,14.593-1.266,6.588,6.588,0,0,1-1.228,1.914c-.219.033-.436.065-.652.1q-.979.143-1.938.263c-.214.026-.425.052-.637.08s-.423.052-.632.075-.421.049-.627.073-.418.049-.624.069-.413.044-.619.064c-.413.044-.82.085-1.225.121-.073.008-.145.013-.217.021-.3.029-.6.054-.9.08-.472.039-.939.075-1.4.111-.328.023-.65.047-.973.067-.217.016-.434.029-.65.041-.307.018-.614.036-.916.052l-.248.015c-.539.025-1.071.051-1.594.069-.369.015-.733.029-1.094.039-1.269.039-2.5.057-3.676.057-1.053,0-2.069-.015-3.044-.039q-.728-.019-1.424-.046h-.008c-.464-.018-.921-.039-1.364-.062-1.79-.09-3.416-.217-4.86-.358q-.511-.047-.991-.1c-.2-.021-.387-.041-.573-.065l-.2-.023a10.9,10.9,0,0,1-.88-.844,8.238,8.238,0,0,1-1.061-1.38,4.7,4.7,0,0,1-.637-1.615,3.039,3.039,0,0,1,.178-1.718,3.037,3.037,0,0,0-.242,1.729,4.821,4.821,0,0,0,.591,1.669,8.607,8.607,0,0,0,1.027,1.447q.3.344.627.665l-1.034-.132q-.2-.023-.4-.054c-.833-.113-1.553-.227-2.154-.328l-.005-.005a6.583,6.583,0,0,1,1.246-10.171c.106-.069.212-.132.322-.191.008,0,.016-.007.023-.013s.021-.013.033-.021a5.643,5.643,0,0,0,2.126-4.682c0-.17-.005-.34-.018-.506.183.044.376.088.583.132.134.028.274.059.415.088.029.008.059.013.091.018.069.015.142.031.214.044.093.021.188.039.286.057s.173.033.261.051c.147.026.3.054.451.08.08.015.16.028.24.041a6.333,6.333,0,0,1,.119,1.171,5.743,5.743,0,0,1-.131,1.31,4.2,4.2,0,0,1-.48,1.225,3.815,3.815,0,0,1-.869,1,3.779,3.779,0,0,0,.923-.965,4.344,4.344,0,0,0,.552-1.228,6.175,6.175,0,0,0,.2-1.339,6.917,6.917,0,0,0-.049-1.127c.591.1,1.233.2,1.922.286.132.018.266.036.4.052.268.033.541.064.825.095.145.019.292.034.439.049a.115.115,0,0,1,.029,0c.413.041.838.08,1.279.113.488.039.988.075,1.507.1.168.011.336.018.5.026s.317.015.477.021q.751.031,1.545.047c.16,0,.322,0,.487,0,.552.008,1.117.005,1.7,0,.217,0,.436-.007.658-.013.282-.005.565-.015.852-.023.529-.021,1.068-.046,1.615-.077.289-.018.58-.036.874-.057.181-.01.361-.025.542-.041l-.264.366.7.271-.029.374c-1.378.067-2.76.067-4.138,0q2.059.162,4.128.124l-.093,1.218c-.779.015-1.561.008-2.34-.026.777.059,1.553.091,2.335.1l-.013.15.774-.15c.24,0,.482-.005.722-.013l.557.018a.391.391,0,0,1-.018.131,3.886,3.886,0,0,1-.436.867l-.41.617c-.905.033-1.808.031-2.714,0,1.174.083,2.353.111,3.529.083a9.362,9.362,0,0,0,.108,1.429q-1.915.154-3.838.142,1.927.07,3.854-.033c.01.059.015.108.021.139l.106.712.8-.714.454,0a1.183,1.183,0,0,1,.457.614c.011.129.016.3.016.485a44.065,44.065,0,0,1-4.878.2,45.367,45.367,0,0,0,4.878-.065c0,.457-.026.929-.026.936l-.021.407c-1.429.116-2.866.165-4.3.145q2.144.089,4.295-.029l-.013.253.4-.274,0,0h0c.227-.013.457-.029.684-.047,0,.021.008.047.01.072l-.281,1.478a46.5,46.5,0,0,1-4.8.132,46.145,46.145,0,0,0,4.769-.005l-.064.343.418-.364c.157-.008.317-.018.475-.029a.393.393,0,0,0,.648.382,10.311,10.311,0,0,1,.371,1.061l.031.113a47.633,47.633,0,0,1-6.887.281,47.862,47.862,0,0,0,6.931-.108l.134.513.4-.563a47.554,47.554,0,0,0,6.565-1.117l.039.005c.154.1.317.224.461.343A6.247,6.247,0,0,1,405.523,290.161Zm-9.447-3.63.026-.018a.564.564,0,0,1,.351-.108.162.162,0,0,1,.051.082C396.362,286.5,396.218,286.519,396.076,286.532Zm.7,1.607.256-.222s.007-.007.013-.01a1.332,1.332,0,0,1,.054.2Zm6.6-4.156c-.015.083-.033.168-.054.25l-.01.082c-.011.268-.023.6-.023.942-.325.088-.653.168-.98.245.01-.025.023-.051.033-.077l.01-.025c.147-.359.261-.7.361-1.006.031-.1.062-.183.091-.268v0Q403.085,284.056,403.371,283.983Zm-.428-.245c.129-.32.25-.5.405-.506a.674.674,0,0,1,.057.374C403.252,283.653,403.1,283.7,402.943,283.738Zm.34,1.86a3.867,3.867,0,0,0,.124,1.189.765.765,0,0,0,.165.23q-1.486.359-3,.621a3.249,3.249,0,0,1,.245-.338,2.135,2.135,0,0,0,.318-.194c.023-.015.049-.033.075-.054a3.536,3.536,0,0,0,.934-1.21Q402.715,285.731,403.283,285.6Zm.658,1.664s.007,0,.013,0a.741.741,0,0,1,.2.127,9.247,9.247,0,0,0,.338,1.109l.052.136a46.539,46.539,0,0,1-5.683,1.086,9.008,9.008,0,0,1,1.006-1.225,2.265,2.265,0,0,0,.529-.593Q402.178,287.655,403.941,287.262Zm17.923-9.864a4.135,4.135,0,0,1-1.663.214c-4.04-.993-4.4-.459-4.517-.284-.067.1-.209.307.144,1.148l.036.085.07.059c.01.01.97.82,1.744,1.5a1.965,1.965,0,0,0-.01.671l.039.206.18.09a1.935,1.935,0,0,1,.622.642,3.326,3.326,0,0,0-.031,1.3c-.126.008-.273.026-.446.047-.152.018-.338.041-.56.064a1.054,1.054,0,0,0-.869.5,1.118,1.118,0,0,0-.106.743l-.472.178.075.33a3.383,3.383,0,0,1-.031,1.225.84.84,0,0,0-.415.17c-.457.351-.48,1.073-.5,1.775,0,.1-.008.191-.01.281-.676.23-.653,1.027-.643,1.393,0,.072.005.165,0,.224a2.031,2.031,0,0,0-.328,1.292c-.064.15-.212.511-.4,1.079a2.523,2.523,0,0,0-.98-.529c-.183-.062-.41-.139-.441-.212a4.236,4.236,0,0,0-.975-1.284l-.436-.382-.023.072a.957.957,0,0,0-.663-.6,1.014,1.014,0,0,0-.756.15,5.589,5.589,0,0,0-.537-.668l-.188-.194-.245.1h-.005a1.451,1.451,0,0,0-.856-.7c-.346-.043-.766.41-1.055.79a.048.048,0,0,0-.015-.013v0a3.858,3.858,0,0,0-.332-.3c-.137-.113-.274-.214-.385-.291a.08.08,0,0,0-.015-.013c-.083-.057-.15-.1-.2-.132l-.069-.046-.454-.067a6.607,6.607,0,0,1-.227-.771.756.756,0,0,0-.067-.2.835.835,0,0,0-.248-.3,2.406,2.406,0,0,0-.3-.176,1.515,1.515,0,0,1-.188-.1,5.85,5.85,0,0,1-.057-1.063c0-.116,0-.24,0-.364,0-.219.008-.444.018-.658a3.62,3.62,0,0,0,.1-.617c0-.036.005-.075.005-.113a1.955,1.955,0,0,0-.008-.278,1.438,1.438,0,0,0-.067-.34.386.386,0,0,0-.021-.057.084.084,0,0,0-.01-.025.646.646,0,0,0-.037-.075.691.691,0,0,0-.075-.119.755.755,0,0,0-.614-.3h-.008a1.019,1.019,0,0,0-.129.007.165.165,0,0,0-.036.005.778.778,0,0,0-.113.023.436.436,0,0,0-.083.028.033.033,0,0,0-.015.005.256.256,0,0,0-.041.018l-.018.008c-.441.216-.655.771-.874,1.413-.018.057-.039.113-.057.173s-.039.116-.059.178c-.036.108-.075.222-.119.335-.021.062-.044.127-.067.191-.036.093-.07.184-.109.276a4.985,4.985,0,0,1-.291.6,3.349,3.349,0,0,1-.212.317,2.338,2.338,0,0,1-.256.289l-.085.075a1.656,1.656,0,0,1-.338.219c-.168.085-.294.263-.536.624a4.5,4.5,0,0,1-.423.568c-.015.015-.031.028-.044.039a1.463,1.463,0,0,0-.23.2,8.3,8.3,0,0,0-.6.714c-.047-.134-.1-.278-.168-.439a1.736,1.736,0,0,0-.091-.183.815.815,0,0,0-.132-.165.625.625,0,0,0-.294-.17.789.789,0,0,0-.1-.016c-.044-.154-.1-.3-.152-.425a.533.533,0,0,0-.374-.322l-.016-.005.059-.312,0-.054a.853.853,0,0,0-.016-.119,1.028,1.028,0,0,0-.033-.162.937.937,0,0,0-.5-.694.9.9,0,0,0-.49-.072c0-.144.008-.3.008-.457,0-.051,0-.106,0-.158,0-.172-.005-.335-.015-.464a1.1,1.1,0,0,0-.119-.415,1.834,1.834,0,0,0-.31-.449c-.031-.033-.061-.064-.09-.093s-.046-.044-.067-.062a2.573,2.573,0,0,0-.3-.24l-.1-.067-.926-.005a5.44,5.44,0,0,1-.047-.921c0-.005,0-.01,0-.015a.7.7,0,0,0,.011-.129.641.641,0,0,0-.286-.542,4.04,4.04,0,0,0,.266-.624,1.089,1.089,0,0,0,.049-.439.767.767,0,0,0-.033-.162.819.819,0,0,0-.39-.488l-.077-.036-1.45-.049-.021,0,.039-.511.013-.144.065-.844-.3-.116.064-.09.6-.836.036-.051-.6-.48c.137-.155.307-.336.449-.485.088-.093.18-.188.271-.286a1.733,1.733,0,0,0,.332-.5,1.018,1.018,0,0,0,.039-.782.612.612,0,0,0-.087-.168l-.091-.121L391.7,274.1l-.282-.485c0-.023.005-.046.008-.064.01-.08.021-.152.028-.222s.016-.139.018-.2a.582.582,0,0,0-.147-.529,3.732,3.732,0,0,0-.361-.258c.131-.26.3-.619.379-.823a.663.663,0,0,0,.029-.332.778.778,0,0,0-.049-.2,1.873,1.873,0,0,0-.248-.467,6.436,6.436,0,0,0,1.184-1.324.656.656,0,0,0,.077-.183.471.471,0,0,0,.011-.059.971.971,0,0,0-.31-.794l1.078-.542.008-.005.16-.08-.031-.155-.013-.065.815-.307.005,0,.245-.093.062-.023.171-.064-.25-.325-.091-.119-.4-.523.286-.07.072-.015c.284-.067.645-.147,1.1-.245l.408-.077.023-.005-.011-.028-.072-.212.41.158.454.173.487.188.446.17-.038-.2c.07.041.15.091.237.15a19.39,19.39,0,0,0,3.3,2.719,10.288,10.288,0,0,0,1.832.947l.194.069-.031.077-.2.511-.2.511-.707,1.79-1.086.1-1.068.1-2.059.188-.029,0-.018.011-3.434,1.762h0l-.246.127.307-.134,3.457-1.509,2.448-.083.784-.025h.005l.537-.018h.007l.286-.011-.021.129-.389,2.791-.844.232-.132.036-.018,0-1.223.335-.026.007-1.114.3-.039.01-.021.021-.735.671-.059.054-.217.2-1.161,1.058-.3.276-.715.653.831-.665.358-.286,1.019-.818.186-.147.485-.39.457-.366h0l.366-.075.258-.054,2.064-.423.462-.093.075-.015-.088,1.942-.007.176v.018l-.029.6-.018.372-.025.58-.121.4v0l-.173.578-.119.392-.361,1.195-.1.332-.07.232-.069.23-.31,1.021-.077.258,0,.01-.054.178-.358,1.181-.069.232-.261.864-.015.057-.064.212.069-.2.018-.051.312-.892.08-.235.379-1.083.062-.178.039-.111.1-.276.312-.9.077-.222.134-.384.121-.346.421-1.2.142-.41.044-.127.24-.689.005-.015,0-.023.041-.464.31-3.542v-.005l.1-.524.25-1.367,0,0,.168-.926.1-.516.467-1.065.24-.552.219-.5.186-.423.345.526.341.516.273.415,2.146,3.253-.227.831-.694,2.538-.011.041,0,.029-.031,4.349v.023l.372,2.169,0,.008.243,1.416.043.261.065.371-.044-.413-.018-.168-.111-1.053,0,0-.278-2.618.307-4.275.6-1.746.1-.279.2-.58,1.509,3.247.054.119-.054.41-.062.792-.09,1.187v.028l.258,3.287.129,1.646c.026.549.034,1.1.052,1.649.013-.55.039-1.1.041-1.651l-.033-1.648-.007-.382-.059-2.91v-.008l.059-.431,0-.021.15-1.115c.436.931.874,1.858,1.295,2.794.132.289.26.583.387.874l.005.26.029,1.153.118,2.681v.01l.322,1.981-.147-1.991.036-.79.047-1.083v-.005l.051-1.143q.391.921.758,1.85c.5,1.282.975,2.575,1.354,3.9-.338-1.334-.766-2.647-1.228-3.944-.225-.627-.457-1.254-.7-1.876l.336.186,1.127.619,2.129,2.691-1.894-2.9-.013-.021-.034-.021-1.806-1.22,0,0L411.11,284l-.1-.093c-.152-.384-.307-.766-.462-1.148-.4-.973-.815-1.934-1.228-2.9l.186.057,1.7.519,4.524,3.952-4.313-4.246-.023-.023-.041-.015-2.29-.852c-.041-.1-.085-.2-.127-.3l-1.375-3.232.735.263,2.595.923,2.6,1.767,3.607,3.167-3.413-3.4,0-.005-.013-.008-2.52-1.955-.021-.013-.036-.018-3.986-1.708-.015.041-.1-.165-2.035-3.315-.317-.516-.315-.516-.147-.238,1.05.238.841.188.01,0,.864.2.867.2,1.218.274,5.487,2.3,2.763,1.156c.921.384,1.86.727,2.789,1.091-.911-.4-1.832-.789-2.735-1.215l-2.708-1.28-.978-.462.137-.4,1-2.946,3.369-1.679-3.529,1.468-.047.018-.021.054-1.362,3.273-3.777-1.785.2-.686,1.4-4.7,2.817-2.1-2.961,1.966-.026.018-.013.033-1.891,5.3-1.85-.5-.916-.246-.923-.248-1.31-.351a2.955,2.955,0,0,0,.392-.64c.075-.165.144-.343.209-.531s.119-.379.168-.58a19.647,19.647,0,0,0,.384-2.126c.031-.234.067-.5.09-.593a4.793,4.793,0,0,0,.268-1.631c.031-.353.062-.686.093-.866a1.133,1.133,0,0,1,.415-.627l.3-.209-.119-.194a4.546,4.546,0,0,1,.387-.611.659.659,0,0,0,.559.129,1.577,1.577,0,0,0,.658-.376l1.847-1.264a1.507,1.507,0,0,0,.511.611l.108.08.134-.005a3.609,3.609,0,0,0,1.705-.606,2.693,2.693,0,0,0,.142.361l.127.274,1.344-.258q-.019.093-.054.232l-.093.354.346.113c.482.157.983.332,1.315.454-.18.4-.49,1.078-.848,1.857l-.142.3.284.184a4.926,4.926,0,0,0,2.28.436.762.762,0,0,0,.088.707c.085.1.238.276,1.533.312l.023.591.17.108c.023.016.508.323,1.2.7a2.776,2.776,0,0,1-.686,1.068l-.405.387.505.24c.026.013.578.276,1.2.539.026.441.449.768.89,1.111.1.075.2.158.31.245a5.938,5.938,0,0,0-.513.968l-.077.188.818,1.251.854.555a.565.565,0,0,0-.232.268,1.162,1.162,0,0,0,.136.993,2.542,2.542,0,0,0,.581.549.961.961,0,0,0-.212.567c0,.139.008.356.694.694a.824.824,0,0,0-.049.413.924.924,0,0,0,.328.508C423.441,276.639,422.757,276.961,421.864,277.4Z" transform="translate(-343.64 -190.851)" fill="#bca449"/>
          </g>
        </g>
        <path id="Tracé_39" data-name="Tracé 39" d="M425.024,304.641l.023-.01.766-.377" transform="translate(-381.867 -244.117)" fill="#bca449"/>
        <line id="Ligne_72" data-name="Ligne 72" x1="1.022" y2="0.348" transform="translate(48.827 59.994)" fill="#bca449"/>
        <line id="Ligne_73" data-name="Ligne 73" x1="0.083" y2="0.054" transform="translate(43.577 62.027)" fill="#bca449"/>
        <line id="Ligne_74" data-name="Ligne 74" x1="0.498" y2="0.217" transform="translate(46.913 60.123)" fill="#bca449"/>
        <line id="Ligne_75" data-name="Ligne 75" x1="0.457" y2="0.201" transform="translate(46.583 60.134)" fill="#bca449"/>
      </g>
      <circle id="Ellipse_9" data-name="Ellipse 9" cx="78.055" cy="78.055" r="78.055" fill="none" stroke="#969621" stroke-miterlimit="10" stroke-width="5.635"/>
    </g>
  </g>
</svg>
